<svg preserveAspectRatio="xMidYMid meet" data-bbox="-0.002 0.069 153.953 39.268" xmlns="http://www.w3.org/2000/svg" viewBox="-0.002 0.069 153.953 39.268" height="40" width="154" data-type="color" role="img" aria-label="Group"><defs><style>#comp-m8hbckco_r_comp-m7he98t5 svg [data-color="1"] {fill: #FFFFFF;}</style></defs>
    <g>
        <path fill="#ffffff" d="M34.986 22.637c.434.17.645-.008.854-.219.431-.436.871-.863 1.308-1.294 3.005-2.968 6.017-5.928 9.012-8.907.758-.754 1.6-1.207 2.711-1.125.638.047 1.282 0 1.923.012.598.011.975.372.979.956.01 1.594-.009 3.188.012 4.782.004.36-.194.556-.413.771-1.948 1.923-3.882 3.86-5.851 5.76-.563.544-.574.895-.056 1.476 2.102 2.358 4.165 4.75 6.27 7.106.432.484.654.96.628 1.624-.054 1.358-.013 2.719-.017 4.079-.003.774-.332 1.098-1.114 1.103-.69.005-1.379-.02-2.066.006-.949.036-1.685-.349-2.314-1.017-2.311-2.456-4.629-4.905-6.944-7.357-.08-.086-.159-.175-.246-.254-.329-.3-.625-.333-.931-.037-1.035 1.001-2.086 1.99-3.06 3.045-.44.475-.722 1.08-.694 1.79.037.913.013 1.829.008 2.743-.005.754-.316 1.077-1.06 1.08q-2.884.009-5.77 0c-.653-.003-1-.349-1.019-.982-.003-.093 0-.187 0-.281V1.347c0-.118-.004-.235 0-.352.026-.555.37-.914.931-.917q2.993-.015 5.984 0c.571.002.91.35.934.908.007.164.002.329.002.493z" clip-rule="evenodd" fill-rule="evenodd" data-color="1"></path>
        <path fill="#ffffff" d="M11.513 32.686c.528-.044.933-.057 1.33-.114 2.554-.36 3.972-1.969 3.943-4.4-.007-.564-.3-.862-.743-1.082a3 3 0 0 0-.675-.215c-1.573-.346-3.156-.382-4.729-.039a4.9 4.9 0 0 0-1.503.603c-1.125.694-1.398 1.787-1.221 3.004.161 1.11.931 1.708 1.966 1.98.568.148 1.165.19 1.632.263m13.127-3.378v8.3c0 .329.04.68-.298.885-.191.115-.413.254-.622.257-1.804.02-3.61 0-5.414.02-.49.005-.714-.32-.961-.622-.146-.178-.224-.41-.335-.618-.278-.523-.489-.547-1-.23-.739.46-1.472.956-2.268 1.299-1.933.831-3.967.85-6.016.53-1.155-.182-2.267-.503-3.307-1.044C1.815 36.73.416 34.565.08 31.717a10.8 10.8 0 0 1 .183-3.707c.605-2.605 2.192-4.42 4.61-5.554 1.54-.722 3.18-1.08 4.864-1.265 2.069-.226 4.122-.2 6.153.31.411.103.856-.161.86-.57.006-.722-.03-1.451-.136-2.165-.106-.718-.611-1.147-1.308-1.333a4.2 4.2 0 0 0-.98-.166c-.973-.024-1.948-.053-2.919-.003-1.048.054-1.931.425-2.396 1.471-.2.452-.57.686-1.13.677-1.9-.029-3.8-.006-5.699-.012-.813-.002-1.097-.322-1.013-1.14.239-2.347 1.447-4.128 3.34-5.487 1.429-1.026 3.055-1.596 4.781-1.899 2.576-.45 5.155-.447 7.715.083 3.927.812 6.247 3.236 7.126 7.065.364 1.586.497 3.195.506 4.815.01 2.157.002 4.314.002 6.47" clip-rule="evenodd" fill-rule="evenodd" data-color="1"></path>
        <mask height="30" width="29" y="10" x="86" maskUnits="userSpaceOnUse" style="mask-type:luminance" id="6f57a647-edd3-408d-bf4c-a612fdcdd18b_comp-m8hbckco_r_comp-m7he98t5" fill="none">
            <path fill="#ffffff" d="M86.507 10.534h28.05v28.803h-28.05z" clip-rule="evenodd" fill-rule="evenodd"></path>
        </mask>
        <g mask="url(#6f57a647-edd3-408d-bf4c-a612fdcdd18b_comp-m8hbckco_r_comp-m7he98t5)">
            <path fill="#ffffff" d="M106.689 24.985c.024-1.549-.16-3.006-.763-4.385-.686-1.57-1.813-2.69-3.514-3.133a8 8 0 0 0-1.966-.23c-2.602-.008-4.506 1.28-5.373 3.712-.927 2.6-.933 5.252-.048 7.86.85 2.506 2.778 3.812 5.44 3.845 2.86.035 4.879-1.41 5.744-4.123.373-1.172.508-2.379.48-3.546m7.868-.183c-.01 2.457-.356 4.713-1.308 6.85-1.585 3.56-4.268 5.912-8.045 7.01-3.105.901-6.232.904-9.332-.012-4.049-1.197-6.835-3.789-8.272-7.695-1.398-3.798-1.453-7.682-.18-11.518 1.62-4.876 5.112-7.711 10.19-8.624 2.602-.468 5.21-.364 7.744.432 4.675 1.47 7.484 4.672 8.692 9.31.375 1.438.496 2.906.511 4.247" clip-rule="evenodd" fill-rule="evenodd" data-color="1"></path>
        </g>
        <path fill="#ffffff" d="M120.427 29.348c.949 0 1.899-.003 2.849.002.641.003.984.266 1.048.877.132 1.253.878 1.947 2.06 2.197 1.668.353 3.347.314 5.019-.018.069-.014.135-.044.203-.065 1.095-.338 1.636-.942 1.661-1.855.028-.996-.487-1.698-1.624-2.032-.792-.233-1.615-.378-2.433-.503-1.808-.275-3.609-.566-5.347-1.151-1.492-.503-2.881-1.189-4.124-2.168-3.789-2.986-3.631-9.268.591-12.007 1.456-.945 3.057-1.497 4.761-1.765 2.962-.466 5.913-.438 8.825.343 1.768.474 3.372 1.257 4.661 2.583 1.258 1.293 1.858 2.862 1.961 4.63.035.608-.309.98-.916.982-1.995.01-3.989-.001-5.984.006-.506.001-.819-.262-.931-.702-.18-.713-.673-1.057-1.334-1.212a10.9 10.9 0 0 0-4.938-.032c-1.097.248-1.561.922-1.545 1.974.012.774.435 1.265 1.091 1.596.859.434 1.801.568 2.737.726 1.893.32 3.797.593 5.67 1.004.96.21 1.902.6 2.782 1.043 2.586 1.303 3.863 3.47 3.931 6.3.088 3.642-1.658 6.205-4.922 7.8-1.397.681-2.896 1.04-4.435 1.228-2.76.338-5.498.263-8.185-.511-1.781-.514-3.39-1.344-4.697-2.673-1.505-1.53-2.267-3.38-2.377-5.498-.04-.779.283-1.094 1.092-1.098.95-.004 1.9 0 2.85 0" clip-rule="evenodd" fill-rule="evenodd" data-color="1"></path>
        <mask height="39" width="21" y="0" x="53" maskUnits="userSpaceOnUse" style="mask-type:luminance" id="dba0bb6d-6854-462c-b246-8e4b294af42a_comp-m8hbckco_r_comp-m7he98t5" fill="none">
            <path fill="#ffffff" d="M53.483.07h20.169v38.7H53.483z" clip-rule="evenodd" fill-rule="evenodd"></path>
        </mask>
        <g mask="url(#dba0bb6d-6854-462c-b246-8e4b294af42a_comp-m8hbckco_r_comp-m7he98t5)">
            <path fill="#ffffff" d="M58.509 24.914c0-2.017.002-4.033-.002-6.049 0-.8-.295-1.09-1.11-1.093-.95-.005-1.9.003-2.85-.003-.715-.005-1.054-.322-1.058-1.01a455 455 0 0 1 0-4.643c.003-.678.353-1.008 1.058-1.014.95-.007 1.9.002 2.85-.003.82-.004 1.111-.285 1.11-1.09-.004-2.93-.014-5.86-.021-8.791 0-.3-.038-.6.237-.843.203-.179.39-.307.682-.306 1.995.01 3.99 0 5.984.009.627.002.945.36.946 1.038.007 2.93.006 5.86.017 8.791.001.249.015.528.127.74.19.356.537.466.96.461 1.638-.02 3.277-.008 4.916-.007 1.022 0 1.276.24 1.277 1.221q.006 2.18 0 4.36c-.003.787-.316 1.086-1.127 1.088-1.662.003-3.325-.002-4.987.002-.844.001-1.17.312-1.17 1.124q-.002 5.626 0 11.254-.002.105.001.21c.051 1.246.543 1.74 1.808 1.755 1.425.018 2.852.046 4.274-.011.766-.031 1.255.378 1.219 1.232-.062 1.45-.013 2.906-.019 4.36-.003.756-.31 1.062-1.068 1.064-1.615.005-3.23.022-4.844-.005-1.65-.028-3.262-.282-4.78-.964-2.553-1.147-3.956-3.131-4.313-5.85a16 16 0 0 1-.112-1.963c-.015-1.688-.005-3.376-.005-5.064" clip-rule="evenodd" fill-rule="evenodd" data-color="1"></path>
        </g>
        <path fill="#ffffff" d="M84.302 24.912q.002 6.33-.002 12.657c0 .295.071.605-.202.855-.215.196-.413.347-.737.345-1.97-.015-3.941-.002-5.912-.011-.64-.003-.993-.364-.995-1.006-.006-2.25-.003-4.5-.003-6.75q.001-9.353-.002-18.704c0-.356-.007-.685.318-.952.22-.18.434-.25.708-.249 1.946.006 3.893-.002 5.84.007.65.003.983.35.985 1.01.006 2.438.002 4.876.002 7.314z" clip-rule="evenodd" fill-rule="evenodd" data-color="1"></path>
        <path fill="#ffffff" d="M149.471 11.223c1.14 0 2.28-.005 3.42.002.692.004 1.053.352 1.055 1.023q.009 3.13 0 6.26c-.001.694-.332 1.012-1.048 1.014q-3.42.007-6.84 0c-.777-.002-1.085-.296-1.087-1.043q-.007-3.094 0-6.19c.002-.734.333-1.06 1.08-1.064 1.14-.007 2.28-.002 3.42-.002" clip-rule="evenodd" fill-rule="evenodd" data-color="1"></path>
        <path fill="#ffffff" d="M149.48 30.573c1.139 0 2.279-.006 3.418.002.703.005 1.045.337 1.047 1.026q.01 3.128.001 6.257c-.002.64-.36 1.01-.992 1.012q-3.489.011-6.978 0c-.64-.002-1.002-.363-1.004-.996q-.01-3.164.001-6.328c.003-.654.337-.966 1.018-.971 1.163-.008 2.326-.002 3.489-.002" clip-rule="evenodd" fill-rule="evenodd" data-color="1"></path>
        <path fill="#ffffff" d="M80.378.074c.972 0 1.944-.006 2.916.002.666.005 1.002.327 1.005.975q.013 2.353 0 4.705c-.003.616-.336.947-.96.95q-2.95.011-5.903 0c-.61-.003-.977-.352-.98-.94q-.015-2.388 0-4.776c.004-.547.376-.905.934-.912.996-.012 1.992-.004 2.988-.004" clip-rule="evenodd" fill-rule="evenodd" data-color="1"></path>
    </g>
</svg>