<?xml version="1.0" encoding="UTF-8" standalone="no"?>
<!DOCTYPE svg PUBLIC "-//W3C//DTD SVG 1.1//EN" "http://www.w3.org/Graphics/SVG/1.1/DTD/svg11.dtd">
<svg width="100%" height="100%" viewBox="0 0 154 40" version="1.1" xmlns="http://www.w3.org/2000/svg" xmlns:xlink="http://www.w3.org/1999/xlink" xml:space="preserve" xmlns:serif="http://www.serif.com/" style="fill-rule:evenodd;clip-rule:evenodd;stroke-linejoin:round;stroke-miterlimit:2;">
    <g>
        <path d="M34.999,22.935C35.433,23.105 35.644,22.927 35.853,22.716C36.284,22.28 36.724,21.853 37.161,21.421C40.167,18.453 43.18,15.492 46.176,12.512C46.934,11.757 47.777,11.304 48.888,11.386C49.526,11.433 50.17,11.386 50.812,11.398C51.41,11.409 51.787,11.77 51.791,12.355C51.801,13.949 51.782,15.544 51.803,17.138C51.807,17.498 51.609,17.694 51.39,17.909C49.441,19.833 47.506,21.771 45.537,23.671C44.974,24.215 44.963,24.566 45.481,25.148C47.584,27.506 49.647,29.899 51.753,32.256C52.185,32.74 52.407,33.216 52.381,33.88C52.327,35.239 52.368,36.6 52.364,37.96C52.361,38.735 52.032,39.059 51.25,39.064C50.559,39.069 49.87,39.044 49.183,39.07C48.234,39.106 47.497,38.721 46.868,38.053C44.557,35.596 42.238,33.146 39.922,30.693C39.842,30.607 39.763,30.518 39.676,30.439C39.347,30.139 39.051,30.106 38.745,30.402C37.71,31.403 36.658,32.393 35.684,33.448C35.244,33.923 34.962,34.528 34.99,35.239C35.027,36.152 35.003,37.068 34.998,37.982C34.993,38.737 34.682,39.06 33.937,39.063C32.014,39.069 30.09,39.069 28.166,39.063C27.512,39.06 27.165,38.714 27.146,38.081C27.143,37.987 27.146,37.893 27.146,37.799L27.146,1.638C27.146,1.52 27.142,1.403 27.146,1.286C27.172,0.731 27.516,0.372 28.078,0.369C30.074,0.359 32.069,0.359 34.063,0.369C34.635,0.371 34.974,0.719 34.998,1.277C35.005,1.441 35,1.606 35,1.77L34.999,22.935Z"/>
        <path d="M11.519,32.987C12.047,32.943 12.452,32.93 12.849,32.873C15.404,32.513 16.822,30.903 16.793,28.472C16.786,27.907 16.493,27.609 16.05,27.389C15.834,27.291 15.607,27.219 15.375,27.174C13.801,26.828 12.218,26.792 10.644,27.135C10.113,27.251 9.605,27.455 9.141,27.738C8.015,28.433 7.742,29.526 7.919,30.743C8.08,31.854 8.851,32.452 9.886,32.724C10.454,32.872 11.051,32.914 11.519,32.987M24.65,29.608L24.65,37.91C24.65,38.24 24.69,38.591 24.351,38.796C24.16,38.911 23.938,39.05 23.729,39.053C21.925,39.073 20.118,39.053 18.314,39.073C17.823,39.078 17.599,38.753 17.352,38.451C17.206,38.273 17.128,38.041 17.017,37.832C16.739,37.309 16.528,37.285 16.017,37.602C15.278,38.063 14.544,38.559 13.748,38.902C11.815,39.733 9.78,39.752 7.73,39.432C6.575,39.25 5.463,38.929 4.422,38.388C1.818,37.032 0.418,34.867 0.082,32.018C-0.071,30.78 -0.009,29.526 0.265,28.31C0.87,25.704 2.458,23.888 4.876,22.754C6.417,22.032 8.057,21.674 9.742,21.488C11.812,21.262 13.865,21.288 15.897,21.799C16.308,21.902 16.753,21.637 16.757,21.228C16.763,20.506 16.727,19.777 16.621,19.063C16.515,18.344 16.01,17.915 15.313,17.729C14.994,17.635 14.665,17.58 14.332,17.563C13.359,17.539 12.384,17.51 11.412,17.56C10.364,17.614 9.481,17.985 9.016,19.032C8.816,19.484 8.446,19.718 7.885,19.709C5.985,19.68 4.084,19.703 2.185,19.697C1.371,19.695 1.087,19.375 1.171,18.557C1.41,16.209 2.619,14.427 4.512,13.068C5.942,12.042 7.568,11.471 9.295,11.168C11.872,10.718 14.451,10.721 17.012,11.251C20.94,12.064 23.261,14.488 24.14,18.318C24.504,19.905 24.638,21.514 24.647,23.135C24.657,25.293 24.649,27.45 24.649,29.607"/>
        <g>
            <path d="M106.724,25.284C106.748,23.734 106.564,22.277 105.96,20.897C105.274,19.327 104.147,18.206 102.445,17.763C101.802,17.606 101.141,17.528 100.479,17.533C97.876,17.525 95.971,18.814 95.104,21.246C94.177,23.847 94.171,26.5 95.056,29.109C95.906,31.616 97.835,32.922 100.498,32.955C103.359,32.99 105.378,31.545 106.243,28.831C106.617,27.658 106.752,26.451 106.724,25.284M114.594,25.101C114.584,27.558 114.238,29.815 113.286,31.953C111.7,35.514 109.016,37.866 105.238,38.965C102.132,39.866 99.004,39.869 95.903,38.953C91.853,37.755 89.066,35.163 87.629,31.255C86.23,27.456 86.175,23.571 87.449,19.734C89.069,14.856 92.562,12.021 97.642,11.107C100.245,10.639 102.853,10.743 105.388,11.539C110.065,13.01 112.874,16.213 114.083,20.852C114.458,22.291 114.579,23.759 114.594,25.101"/>
        </g>
        <path d="M120.466,29.648C121.415,29.648 122.365,29.645 123.316,29.65C123.957,29.653 124.3,29.916 124.364,30.527C124.496,31.781 125.242,32.475 126.425,32.725C128.093,33.078 129.773,33.039 131.445,32.707C131.514,32.693 131.58,32.663 131.648,32.642C132.744,32.304 133.285,31.7 133.31,30.786C133.338,29.79 132.823,29.088 131.685,28.754C130.893,28.521 130.07,28.376 129.251,28.251C127.443,27.975 125.641,27.684 123.903,27.099C122.41,26.596 121.021,25.91 119.778,24.931C115.987,21.944 116.145,15.66 120.369,12.92C121.825,11.975 123.427,11.422 125.131,11.154C128.094,10.688 131.046,10.716 133.959,11.497C135.727,11.972 137.332,12.755 138.621,14.081C139.88,15.375 140.48,16.944 140.583,18.713C140.618,19.321 140.274,19.693 139.667,19.695C137.671,19.705 135.676,19.694 133.681,19.701C133.175,19.702 132.862,19.439 132.75,18.999C132.569,18.285 132.076,17.941 131.415,17.786C129.793,17.398 128.103,17.387 126.476,17.754C125.378,18.002 124.914,18.677 124.93,19.729C124.942,20.503 125.365,20.994 126.021,21.325C126.881,21.76 127.823,21.894 128.759,22.052C130.653,22.372 132.557,22.645 134.431,23.056C135.391,23.266 136.334,23.656 137.214,24.099C139.801,25.403 141.078,27.57 141.146,30.401C141.234,34.044 139.488,36.608 136.223,38.204C134.825,38.885 133.326,39.244 131.786,39.432C129.025,39.77 126.287,39.695 123.599,38.921C121.817,38.407 120.208,37.576 118.9,36.247C117.395,34.716 116.633,32.866 116.523,30.747C116.483,29.968 116.806,29.653 117.615,29.649C118.565,29.645 119.515,29.649 120.466,29.649"/>
        <g>
            <path d="M58.529,25.213C58.529,23.195 58.531,21.178 58.527,19.162C58.527,18.361 58.232,18.071 57.417,18.068C56.466,18.063 55.516,18.071 54.566,18.065C53.85,18.06 53.511,17.743 53.507,17.055C53.499,15.507 53.499,13.959 53.507,12.411C53.51,11.732 53.86,11.402 54.566,11.396C55.516,11.389 56.466,11.398 57.417,11.393C58.237,11.389 58.528,11.108 58.527,10.303C58.523,7.372 58.513,4.441 58.506,1.509C58.506,1.209 58.468,0.909 58.743,0.666C58.946,0.487 59.133,0.359 59.425,0.36C61.421,0.37 63.416,0.36 65.411,0.369C66.038,0.371 66.356,0.729 66.357,1.407C66.364,4.338 66.363,7.269 66.374,10.201C66.375,10.45 66.389,10.729 66.501,10.941C66.691,11.297 67.038,11.407 67.462,11.402C69.1,11.382 70.74,11.394 72.379,11.395C73.401,11.395 73.655,11.635 73.656,12.617C73.66,14.071 73.66,15.524 73.656,16.978C73.653,17.765 73.34,18.064 72.529,18.066C70.867,18.069 69.203,18.064 67.541,18.068C66.696,18.069 66.37,18.381 66.37,19.193C66.369,22.945 66.369,26.697 66.37,30.45C66.369,30.52 66.369,30.59 66.371,30.66C66.422,31.907 66.914,32.401 68.18,32.416C69.605,32.434 71.033,32.462 72.455,32.405C73.221,32.374 73.71,32.783 73.674,33.637C73.612,35.088 73.661,36.544 73.655,37.998C73.652,38.755 73.345,39.061 72.587,39.063C70.972,39.068 69.356,39.085 67.742,39.058C66.091,39.03 64.479,38.776 62.96,38.094C60.406,36.946 59.003,34.962 58.646,32.242C58.568,31.59 58.531,30.934 58.534,30.278C58.519,28.59 58.529,26.901 58.529,25.213"/>
        </g>
        <path d="M84.33,25.211C84.331,29.432 84.33,33.652 84.328,37.871C84.328,38.167 84.399,38.477 84.126,38.727C83.911,38.923 83.713,39.074 83.388,39.072C81.418,39.057 79.446,39.07 77.475,39.061C76.834,39.058 76.481,38.697 76.479,38.055C76.473,35.804 76.476,33.553 76.476,31.302C76.477,25.065 76.476,18.829 76.474,12.593C76.474,12.237 76.467,11.908 76.792,11.64C77.013,11.46 77.227,11.39 77.501,11.391C79.447,11.397 81.395,11.389 83.342,11.398C83.993,11.401 84.326,11.748 84.328,12.409C84.334,14.847 84.33,17.286 84.33,19.725L84.33,25.211Z"/>
        <path d="M149.519,11.517C150.659,11.517 151.799,11.512 152.94,11.519C153.632,11.523 153.993,11.872 153.995,12.543C154.001,14.63 154.001,16.717 153.995,18.805C153.994,19.499 153.663,19.817 152.947,19.819C150.666,19.824 148.385,19.824 146.105,19.819C145.327,19.817 145.019,19.523 145.017,18.776C145.013,16.712 145.013,14.648 145.017,12.584C145.019,11.85 145.35,11.523 146.098,11.519C147.238,11.512 148.378,11.517 149.519,11.517"/>
        <path d="M149.528,30.873C150.667,30.873 151.807,30.867 152.947,30.875C153.65,30.88 153.992,31.212 153.994,31.902C154.001,33.988 154.001,36.074 153.995,38.161C153.993,38.801 153.635,39.171 153.003,39.173C150.676,39.18 148.349,39.18 146.023,39.173C145.382,39.171 145.02,38.81 145.018,38.177C145.012,36.067 145.012,33.957 145.019,31.847C145.022,31.192 145.356,30.88 146.038,30.875C147.201,30.867 148.364,30.873 149.528,30.873"/>
        <path d="M80.405,0.365C81.377,0.365 82.349,0.359 83.321,0.367C83.988,0.372 84.324,0.694 84.327,1.342C84.335,2.911 84.335,4.48 84.327,6.049C84.324,6.665 83.991,6.996 83.366,6.999C81.399,7.006 79.431,7.006 77.462,6.999C76.851,6.996 76.484,6.647 76.481,6.059C76.471,4.466 76.471,2.874 76.481,1.281C76.485,0.734 76.857,0.376 77.416,0.369C78.412,0.357 79.408,0.365 80.405,0.365"/>
    </g>
</svg>
