<?xml version="1.0" encoding="UTF-8" standalone="no"?>
<!DOCTYPE svg PUBLIC "-//W3C//DTD SVG 1.1//EN" "http://www.w3.org/Graphics/SVG/1.1/DTD/svg11.dtd">
<svg width="100%" height="100%" viewBox="0 0 1200 1200" version="1.1" xmlns="http://www.w3.org/2000/svg" xmlns:xlink="http://www.w3.org/1999/xlink" xml:space="preserve" xmlns:serif="http://www.serif.com/" style="fill-rule:evenodd;clip-rule:evenodd;stroke-linecap:round;stroke-linejoin:round;stroke-miterlimit:1.5;">
    <g id="RA" transform="matrix(1.9106,0,0,1.9106,-1299.64,-857.916)">
        <g transform="matrix(0.523397,0,0,0.523397,710.491,455.004)">
            <g transform="matrix(0.119994,-0.992775,0.992775,0.119994,-423.478,735.169)">
                <g transform="matrix(186.667,0,0,186.667,202.95,606.457)">
                    <path d="M0.07,-0.63L0.07,0.003L0.21,0.003L0.21,-0.251C0.226,-0.251 0.245,-0.251 0.273,-0.251C0.395,-0.238 0.349,-0.049 0.415,-0.011C0.456,0.013 0.522,0.01 0.56,0.003C0.473,-0.072 0.517,-0.23 0.403,-0.262C0.476,-0.288 0.522,-0.359 0.522,-0.448C0.522,-0.55 0.455,-0.63 0.335,-0.63C0.278,-0.63 0.238,-0.63 0.21,-0.63L0.07,-0.63ZM0.314,-0.604C0.384,-0.604 0.417,-0.517 0.414,-0.447C0.412,-0.368 0.383,-0.278 0.309,-0.278C0.264,-0.278 0.231,-0.278 0.21,-0.278L0.21,-0.603C0.241,-0.604 0.285,-0.604 0.314,-0.604Z" style="fill:white;fill-rule:nonzero;"/>
                </g>
            </g>
            <g transform="matrix(0.389789,-0.920904,0.920904,0.389789,-330.855,504.72)">
                <g transform="matrix(186.667,0,0,186.667,215.423,502.016)">
                    <path d="M0.255,-0.434C0.178,-0.434 0.086,-0.411 0.074,-0.364C0.044,-0.253 0.183,-0.268 0.175,-0.326C0.164,-0.4 0.218,-0.412 0.249,-0.405C0.293,-0.396 0.293,-0.339 0.293,-0.294C0.199,-0.203 0.051,-0.235 0.031,-0.132C0.018,-0.058 0.076,0.002 0.199,0.002C0.241,0.002 0.273,-0.012 0.294,-0.033C0.302,0.002 0.335,0.018 0.371,0.018C0.432,0.018 0.464,0.002 0.478,-0.009L0.478,-0.025C0.441,-0.014 0.43,-0.037 0.43,-0.066L0.43,-0.299C0.43,-0.402 0.332,-0.433 0.255,-0.434ZM0.293,-0.261C0.293,-0.261 0.293,-0.071 0.293,-0.071C0.279,-0.049 0.258,-0.03 0.23,-0.03C0.174,-0.03 0.133,-0.064 0.15,-0.134C0.167,-0.202 0.231,-0.207 0.293,-0.261Z" style="fill:white;fill-rule:nonzero;"/>
                </g>
            </g>
            <g transform="matrix(0.613858,-0.789417,0.789417,0.613858,-232.818,359.617)">
                <g transform="matrix(186.667,0,0,186.667,251.186,417.791)">
                    <path d="M0.301,-0.712C0.172,-0.712 0.097,-0.628 0.097,-0.516L0.097,-0.431L0.01,-0.431L0.01,-0.388L0.097,-0.388C0.097,-0.263 0.097,-0.081 0.097,0.002L0.235,0.002L0.235,-0.388L0.37,-0.388L0.37,-0.432L0.235,-0.431L0.235,-0.545C0.235,-0.62 0.245,-0.684 0.291,-0.686C0.347,-0.688 0.355,-0.632 0.342,-0.579C0.318,-0.483 0.448,-0.469 0.456,-0.568C0.459,-0.61 0.437,-0.649 0.405,-0.675C0.374,-0.699 0.347,-0.712 0.301,-0.712Z" style="fill:white;fill-rule:nonzero;"/>
                </g>
            </g>
            <g transform="matrix(0.775,-0.631961,0.631961,0.775,-160.726,266.74)">
                <g transform="matrix(186.667,0,0,186.667,294.235,359.087)">
                    <path d="M0.255,-0.434C0.178,-0.434 0.086,-0.411 0.074,-0.364C0.044,-0.253 0.183,-0.268 0.175,-0.326C0.164,-0.4 0.218,-0.412 0.249,-0.405C0.293,-0.396 0.293,-0.339 0.293,-0.294C0.199,-0.203 0.051,-0.235 0.031,-0.132C0.018,-0.058 0.076,0.002 0.199,0.002C0.241,0.002 0.273,-0.012 0.294,-0.033C0.302,0.002 0.335,0.018 0.371,0.018C0.432,0.018 0.464,0.002 0.478,-0.009L0.478,-0.025C0.441,-0.014 0.43,-0.037 0.43,-0.066L0.43,-0.299C0.43,-0.402 0.332,-0.433 0.255,-0.434ZM0.293,-0.261C0.293,-0.261 0.293,-0.071 0.293,-0.071C0.279,-0.049 0.258,-0.03 0.23,-0.03C0.174,-0.03 0.133,-0.064 0.15,-0.134C0.167,-0.202 0.231,-0.207 0.293,-0.261Z" style="fill:white;fill-rule:nonzero;"/>
                </g>
            </g>
            <g transform="matrix(0.910146,-0.414287,0.414287,0.910146,-92.0927,178.362)">
                <g transform="matrix(186.667,0,0,186.667,365.138,301.486)">
                    <path d="M0.23,-0.42C0.119,-0.42 0.03,-0.325 0.03,-0.209C0.03,-0.092 0.106,0.002 0.244,0.002C0.31,0.002 0.359,-0.028 0.398,-0.077L0.387,-0.089C0.365,-0.068 0.339,-0.039 0.28,-0.039C0.22,-0.039 0.171,-0.117 0.171,-0.209L0.171,-0.212L0.418,-0.212L0.426,-0.212C0.426,-0.345 0.364,-0.42 0.23,-0.42ZM0.269,-0.376C0.337,-0.376 0.339,-0.296 0.337,-0.243L0.173,-0.243C0.181,-0.319 0.217,-0.376 0.269,-0.376Z" style="fill:white;fill-rule:nonzero;"/>
                </g>
            </g>
            <g transform="matrix(0.973794,-0.227432,0.227432,0.973794,-49.335,107.846)">
                <g transform="matrix(186.667,0,0,186.667,443.311,268.003)">
                    <path d="M0.056,-0.719L0.056,0.002L0.193,0.002L0.193,-0.607C0.14,-0.607 0.075,-0.622 0.069,-0.719L0.056,-0.719Z" style="fill:white;fill-rule:nonzero;"/>
                </g>
            </g>
            <g transform="matrix(0.986647,0.162872,-0.162872,0.986647,47.9679,-85.4041)">
                <g transform="matrix(186.667,0,0,186.667,544.846,249.844)">
                    <path d="M0.317,-0.66C0.28,-0.639 0.23,-0.628 0.183,-0.616L0.207,-0.556L-0.011,0.003L0.057,0.003L0.137,-0.203L0.346,-0.203L0.427,0.003L0.577,0.003L0.317,-0.66ZM0.241,-0.469L0.321,-0.266L0.162,-0.266L0.241,-0.469Z" style="fill:white;fill-rule:nonzero;"/>
                </g>
            </g>
            <g transform="matrix(0.923863,0.382722,-0.382722,0.923863,152.881,-227.644)">
                <g transform="matrix(186.667,0,0,186.667,648.6,270.429)">
                    <path d="M0.056,-0.719L0.056,0.002L0.193,0.002L0.193,-0.607C0.14,-0.607 0.075,-0.622 0.069,-0.719L0.056,-0.719Z" style="fill:white;fill-rule:nonzero;"/>
                </g>
            </g>
            <g transform="matrix(0.816595,0.577211,-0.577211,0.816595,291.898,-347.669)">
                <g transform="matrix(186.667,0,0,186.667,693.039,285.495)">
                    <path d="M0.05,-0.739L0.05,-0.022C0.091,-0.023 0.165,-0.01 0.169,0.018L0.187,0.018L0.187,-0.034C0.21,-0.007 0.243,0.01 0.286,0.01C0.425,0.01 0.501,-0.092 0.501,-0.209C0.501,-0.326 0.411,-0.42 0.3,-0.42C0.248,-0.42 0.212,-0.409 0.187,-0.387L0.187,-0.607C0.135,-0.607 0.069,-0.642 0.063,-0.739L0.05,-0.739ZM0.261,-0.387C0.322,-0.387 0.36,-0.321 0.36,-0.209C0.36,-0.117 0.311,-0.034 0.251,-0.034C0.221,-0.034 0.201,-0.058 0.187,-0.088L0.187,-0.343C0.201,-0.368 0.223,-0.387 0.261,-0.387Z" style="fill:white;fill-rule:nonzero;"/>
                </g>
            </g>
            <g transform="matrix(0.634848,0.772637,-0.772637,0.634848,547.985,-472.452)">
                <g transform="matrix(186.667,0,0,186.667,773.83,343.524)">
                    <path d="M0.23,-0.42C0.119,-0.42 0.03,-0.325 0.03,-0.209C0.03,-0.092 0.106,0.002 0.244,0.002C0.31,0.002 0.359,-0.028 0.398,-0.077L0.387,-0.089C0.365,-0.068 0.339,-0.039 0.28,-0.039C0.22,-0.039 0.171,-0.117 0.171,-0.209L0.171,-0.212L0.418,-0.212L0.426,-0.212C0.426,-0.345 0.364,-0.42 0.23,-0.42ZM0.269,-0.376C0.337,-0.376 0.339,-0.296 0.337,-0.243L0.173,-0.243C0.181,-0.319 0.217,-0.376 0.269,-0.376Z" style="fill:white;fill-rule:nonzero;"/>
                </g>
            </g>
            <g transform="matrix(0.419143,0.90792,-0.90792,0.419143,852.968,-513.963)">
                <g transform="matrix(186.667,0,0,186.667,828.164,409.643)">
                    <path d="M0.166,-0.454C0.166,-0.437 0.152,-0.428 0.141,-0.421C0.118,-0.408 0.086,-0.399 0.05,-0.4L0.05,0.002L0.189,0.002L0.189,-0.319C0.205,-0.416 0.333,-0.4 0.309,-0.312C0.287,-0.233 0.403,-0.235 0.409,-0.302C0.416,-0.369 0.373,-0.417 0.297,-0.42C0.252,-0.423 0.211,-0.396 0.189,-0.369L0.189,-0.454L0.166,-0.454Z" style="fill:white;fill-rule:nonzero;"/>
                </g>
            </g>
            <g transform="matrix(0.205287,0.978702,-0.978702,0.205287,1157.41,-459.952)">
                <g transform="matrix(186.667,0,0,186.667,861.924,482.709)">
                    <path d="M0.205,-0.625C0.205,-0.573 0.128,-0.557 0.09,-0.558L0.09,-0.431L0.015,-0.431L0.016,-0.388L0.09,-0.388L0.09,-0.135C0.09,-0.028 0.174,0.009 0.232,0.009C0.354,0.009 0.377,-0.061 0.389,-0.08L0.379,-0.086C0.319,0.002 0.228,-0.021 0.228,-0.113L0.228,-0.388L0.335,-0.388L0.335,-0.432L0.228,-0.431L0.228,-0.625L0.205,-0.625Z" style="fill:white;fill-rule:nonzero;"/>
                </g>
            </g>
            <g transform="matrix(0.0309085,0.999522,-0.999522,0.0309085,1404.54,-336.778)">
                <g transform="matrix(186.667,0,0,186.667,875.948,555.934)">
                    <path d="M0.119,-0.635C0.08,-0.635 0.049,-0.604 0.049,-0.565C0.049,-0.527 0.08,-0.496 0.119,-0.496C0.157,-0.496 0.188,-0.527 0.188,-0.565C0.188,-0.604 0.157,-0.635 0.119,-0.635ZM0.165,-0.454C0.165,-0.417 0.088,-0.398 0.049,-0.4L0.049,0.002L0.188,0.002L0.188,-0.454L0.165,-0.454Z" style="fill:white;fill-rule:nonzero;"/>
                </g>
            </g>
            <g transform="matrix(0.43581,0.900383,-0.900104,0.435675,782.095,246.026)">
                <g transform="matrix(61.3333,0,0,61.3333,194.81,746.786)">
                    <rect x="0.07" y="-0.63" width="0.14" height="0.633" style="fill:white;fill-rule:nonzero;"/>
                </g>
            </g>
            <g transform="matrix(0.490935,0.871552,-0.871282,0.490783,766.729,212.038)">
                <g transform="matrix(61.3333,0,0,61.3333,201.933,762.018)">
                    <path d="M0.166,-0.454C0.166,-0.417 0.089,-0.398 0.05,-0.4L0.05,0.002L0.189,0.002L0.189,-0.352C0.234,-0.38 0.317,-0.376 0.317,-0.295L0.317,0.002L0.454,0.002L0.454,-0.298C0.454,-0.371 0.385,-0.415 0.326,-0.415C0.252,-0.415 0.211,-0.39 0.189,-0.367L0.189,-0.454L0.166,-0.454Z" style="fill:white;fill-rule:nonzero;"/>
                </g>
            </g>
            <g transform="matrix(0.556379,0.831302,-0.831044,0.556206,752.407,169.552)">
                <g transform="matrix(61.3333,0,0,61.3333,217.419,789.314)">
                    <path d="M0.21,-0.434C0.126,-0.434 0.074,-0.403 0.058,-0.361C0.04,-0.314 0.053,-0.256 0.11,-0.211C0.163,-0.169 0.267,-0.139 0.279,-0.093C0.287,-0.062 0.269,-0.014 0.226,-0.012C0.2,-0.01 0.142,-0.02 0.153,-0.094C0.161,-0.154 0.012,-0.165 0.059,-0.056C0.078,-0.012 0.136,0.013 0.214,0.013C0.286,0.013 0.343,-0.015 0.371,-0.059C0.397,-0.101 0.396,-0.163 0.347,-0.203C0.283,-0.257 0.149,-0.288 0.149,-0.364C0.149,-0.4 0.182,-0.415 0.21,-0.415C0.238,-0.415 0.28,-0.4 0.27,-0.326C0.262,-0.273 0.39,-0.265 0.362,-0.364C0.349,-0.411 0.288,-0.434 0.21,-0.434Z" style="fill:white;fill-rule:nonzero;"/>
                </g>
            </g>
            <g transform="matrix(0.60991,0.792862,-0.792616,0.609721,733.438,132.593)">
                <g transform="matrix(61.3333,0,0,61.3333,232.042,811.138)">
                    <path d="M0.205,-0.625C0.205,-0.573 0.128,-0.557 0.09,-0.558L0.09,-0.431L0.015,-0.431L0.016,-0.388L0.09,-0.388L0.09,-0.135C0.09,-0.028 0.174,0.009 0.232,0.009C0.354,0.009 0.377,-0.061 0.389,-0.08L0.379,-0.086C0.319,0.002 0.228,-0.021 0.228,-0.113L0.228,-0.388L0.335,-0.388L0.335,-0.432L0.228,-0.431L0.228,-0.625L0.205,-0.625Z" style="fill:white;fill-rule:nonzero;"/>
                </g>
            </g>
            <g transform="matrix(0.648207,0.761871,-0.761635,0.648006,719.054,104.186)">
                <g transform="matrix(61.3333,0,0,61.3333,246.772,830.11)">
                    <path d="M0.119,-0.635C0.08,-0.635 0.049,-0.604 0.049,-0.565C0.049,-0.527 0.08,-0.496 0.119,-0.496C0.157,-0.496 0.188,-0.527 0.188,-0.565C0.188,-0.604 0.157,-0.635 0.119,-0.635ZM0.165,-0.454C0.165,-0.417 0.088,-0.398 0.049,-0.4L0.049,0.002L0.188,0.002L0.188,-0.454L0.165,-0.454Z" style="fill:white;fill-rule:nonzero;"/>
                </g>
            </g>
            <g transform="matrix(0.684868,0.729093,-0.728867,0.684655,693.286,78.7663)">
                <g transform="matrix(61.3333,0,0,61.3333,255.576,840.683)">
                    <path d="M0.205,-0.625C0.205,-0.573 0.128,-0.557 0.09,-0.558L0.09,-0.431L0.015,-0.431L0.016,-0.388L0.09,-0.388L0.09,-0.135C0.09,-0.028 0.174,0.009 0.232,0.009C0.354,0.009 0.377,-0.061 0.389,-0.08L0.379,-0.086C0.319,0.002 0.228,-0.021 0.228,-0.113L0.228,-0.388L0.335,-0.388L0.335,-0.432L0.228,-0.431L0.228,-0.625L0.205,-0.625Z" style="fill:white;fill-rule:nonzero;"/>
                </g>
            </g>
            <g transform="matrix(0.740214,0.672832,-0.672623,0.739985,648.708,39.9416)">
                <g transform="matrix(61.3333,0,0,61.3333,272.65,859.14)">
                    <path d="M0.165,-0.454C0.165,-0.417 0.088,-0.398 0.05,-0.4L0.05,-0.11C0.05,-0.035 0.119,0.009 0.179,0.009C0.269,0.009 0.311,-0.028 0.33,-0.055C0.332,0.054 0.454,0.026 0.524,0.002L0.524,-0.017C0.478,-0.017 0.468,-0.036 0.468,-0.069L0.468,-0.454L0.445,-0.454C0.445,-0.417 0.368,-0.398 0.33,-0.4L0.33,-0.064C0.289,-0.027 0.188,-0.022 0.188,-0.113L0.188,-0.454L0.165,-0.454Z" style="fill:white;fill-rule:nonzero;"/>
                </g>
            </g>
            <g transform="matrix(0.788283,0.615816,-0.615625,0.788039,605.885,3.5343)">
                <g transform="matrix(61.3333,0,0,61.3333,297.764,881.775)">
                    <path d="M0.205,-0.625C0.205,-0.573 0.128,-0.557 0.09,-0.558L0.09,-0.431L0.015,-0.431L0.016,-0.388L0.09,-0.388L0.09,-0.135C0.09,-0.028 0.174,0.009 0.232,0.009C0.354,0.009 0.377,-0.061 0.389,-0.08L0.379,-0.086C0.319,0.002 0.228,-0.021 0.228,-0.113L0.228,-0.388L0.335,-0.388L0.335,-0.432L0.228,-0.431L0.228,-0.625L0.205,-0.625Z" style="fill:white;fill-rule:nonzero;"/>
                </g>
            </g>
            <g transform="matrix(0.830047,0.558249,-0.558076,0.82979,554.483,-24.3333)">
                <g transform="matrix(61.3333,0,0,61.3333,317.084,896.998)">
                    <path d="M0.246,-0.433C0.127,-0.433 0.03,-0.334 0.03,-0.212C0.03,-0.09 0.127,0.009 0.246,0.009C0.364,0.009 0.461,-0.09 0.461,-0.212C0.461,-0.334 0.364,-0.433 0.246,-0.433ZM0.246,-0.413C0.291,-0.413 0.329,-0.323 0.329,-0.212C0.329,-0.101 0.291,-0.011 0.246,-0.011C0.2,-0.011 0.162,-0.101 0.162,-0.212C0.162,-0.323 0.2,-0.413 0.246,-0.413Z" style="fill:white;fill-rule:nonzero;"/>
                </g>
            </g>
            <g transform="matrix(0.895012,0.446736,-0.446597,0.894735,449.822,-62.715)">
                <g transform="matrix(61.3333,0,0,61.3333,357.893,923.086)">
                    <path d="M0.351,-0.739L0.351,-0.381C0.326,-0.407 0.288,-0.421 0.231,-0.421C0.12,-0.421 0.03,-0.326 0.03,-0.209C0.03,-0.093 0.106,0.01 0.245,0.01C0.293,0.01 0.327,-0.011 0.351,-0.043L0.351,-0.022C0.391,-0.023 0.466,-0.01 0.47,0.018L0.488,0.018L0.488,-0.607C0.435,-0.607 0.37,-0.642 0.364,-0.739L0.351,-0.739ZM0.27,-0.387C0.315,-0.387 0.338,-0.36 0.351,-0.329L0.351,-0.1C0.337,-0.065 0.315,-0.034 0.28,-0.034C0.22,-0.034 0.171,-0.117 0.171,-0.209C0.171,-0.322 0.209,-0.387 0.27,-0.387Z" style="fill:white;fill-rule:nonzero;"/>
                </g>
            </g>
            <g transform="matrix(0.929347,0.370045,-0.36993,0.92906,374.443,-77.1221)">
                <g transform="matrix(61.3333,0,0,61.3333,388.244,938.049)">
                    <path d="M0.23,-0.42C0.119,-0.42 0.03,-0.325 0.03,-0.209C0.03,-0.092 0.106,0.002 0.244,0.002C0.31,0.002 0.359,-0.028 0.398,-0.077L0.387,-0.089C0.365,-0.068 0.339,-0.039 0.28,-0.039C0.22,-0.039 0.171,-0.117 0.171,-0.209L0.171,-0.212L0.418,-0.212L0.426,-0.212C0.426,-0.345 0.364,-0.42 0.23,-0.42ZM0.269,-0.376C0.337,-0.376 0.339,-0.296 0.337,-0.243L0.173,-0.243C0.181,-0.319 0.217,-0.376 0.269,-0.376Z" style="fill:white;fill-rule:nonzero;"/>
                </g>
            </g>
            <g transform="matrix(0.970803,0.241167,-0.241092,0.970502,242.717,-76.0217)">
                <g transform="matrix(61.3333,0,0,61.3333,431.964,954.43)">
                    <path d="M0.07,-0.63L0.07,0.003L0.536,0.003L0.537,-0.131C0.514,-0.099 0.474,-0.026 0.37,-0.026C0.309,-0.026 0.255,-0.026 0.21,-0.026L0.21,-0.303C0.243,-0.303 0.274,-0.303 0.279,-0.303C0.383,-0.303 0.402,-0.236 0.416,-0.198L0.415,-0.322L0.416,-0.445C0.402,-0.408 0.383,-0.34 0.279,-0.34C0.274,-0.34 0.243,-0.34 0.21,-0.341L0.21,-0.601C0.248,-0.601 0.293,-0.601 0.347,-0.601C0.451,-0.601 0.491,-0.528 0.514,-0.496L0.513,-0.63L0.07,-0.63Z" style="fill:white;fill-rule:nonzero;"/>
                </g>
            </g>
            <g transform="matrix(0.989278,0.148153,-0.148107,0.988971,147.748,-58.9503)">
                <g transform="matrix(61.3333,0,0,61.3333,469.632,963.579)">
                    <path d="M0.351,-0.739L0.351,-0.381C0.326,-0.407 0.288,-0.421 0.231,-0.421C0.12,-0.421 0.03,-0.326 0.03,-0.209C0.03,-0.093 0.106,0.01 0.245,0.01C0.293,0.01 0.327,-0.011 0.351,-0.043L0.351,-0.022C0.391,-0.023 0.466,-0.01 0.47,0.018L0.488,0.018L0.488,-0.607C0.435,-0.607 0.37,-0.642 0.364,-0.739L0.351,-0.739ZM0.27,-0.387C0.315,-0.387 0.338,-0.36 0.351,-0.329L0.351,-0.1C0.337,-0.065 0.315,-0.034 0.28,-0.034C0.22,-0.034 0.171,-0.117 0.171,-0.209C0.171,-0.322 0.209,-0.387 0.27,-0.387Z" style="fill:white;fill-rule:nonzero;"/>
                </g>
            </g>
            <g transform="matrix(0.998771,0.0554568,-0.0554396,0.998462,54.316,-26.4165)">
                <g transform="matrix(61.3333,0,0,61.3333,503.206,968.582)">
                    <path d="M0.165,-0.454C0.165,-0.417 0.088,-0.398 0.05,-0.4L0.05,-0.11C0.05,-0.035 0.119,0.009 0.179,0.009C0.269,0.009 0.311,-0.028 0.33,-0.055C0.332,0.054 0.454,0.026 0.524,0.002L0.524,-0.017C0.478,-0.017 0.468,-0.036 0.468,-0.069L0.468,-0.454L0.445,-0.454C0.445,-0.417 0.368,-0.398 0.33,-0.4L0.33,-0.064C0.289,-0.027 0.188,-0.022 0.188,-0.113L0.188,-0.454L0.165,-0.454Z" style="fill:white;fill-rule:nonzero;"/>
                </g>
            </g>
            <g transform="matrix(1.00006,-0.0222013,0.0221944,0.999754,-21.5705,12.1661)">
                <g transform="matrix(61.3333,0,0,61.3333,537.223,970.356)">
                    <path d="M0.231,-0.42C0.12,-0.42 0.03,-0.325 0.03,-0.209C0.03,-0.092 0.107,0.002 0.245,0.002C0.33,0.002 0.376,-0.044 0.409,-0.085L0.398,-0.096C0.376,-0.075 0.34,-0.039 0.281,-0.039C0.22,-0.039 0.171,-0.117 0.171,-0.209C0.171,-0.301 0.21,-0.388 0.27,-0.388C0.324,-0.388 0.336,-0.349 0.324,-0.289C0.311,-0.22 0.412,-0.209 0.412,-0.278C0.412,-0.368 0.353,-0.42 0.231,-0.42Z" style="fill:white;fill-rule:nonzero;"/>
                </g>
            </g>
            <g transform="matrix(0.995493,-0.0980512,0.0980209,0.995184,-92.5191,60.0139)">
                <g transform="matrix(61.3333,0,0,61.3333,564.435,969.826)">
                    <path d="M0.255,-0.434C0.178,-0.434 0.086,-0.411 0.074,-0.364C0.044,-0.253 0.183,-0.268 0.175,-0.326C0.164,-0.4 0.218,-0.412 0.249,-0.405C0.293,-0.396 0.293,-0.339 0.293,-0.294C0.199,-0.203 0.051,-0.235 0.031,-0.132C0.018,-0.058 0.076,0.002 0.199,0.002C0.241,0.002 0.273,-0.012 0.294,-0.033C0.302,0.002 0.335,0.018 0.371,0.018C0.432,0.018 0.464,0.002 0.478,-0.009L0.478,-0.025C0.441,-0.014 0.43,-0.037 0.43,-0.066L0.43,-0.299C0.43,-0.402 0.332,-0.433 0.255,-0.434ZM0.293,-0.261C0.293,-0.261 0.293,-0.071 0.293,-0.071C0.279,-0.049 0.258,-0.03 0.23,-0.03C0.174,-0.03 0.133,-0.064 0.15,-0.134C0.167,-0.202 0.231,-0.207 0.293,-0.261Z" style="fill:white;fill-rule:nonzero;"/>
                </g>
            </g>
            <g transform="matrix(0.985508,-0.171449,0.171395,0.985202,-157.093,116.237)">
                <g transform="matrix(61.3333,0,0,61.3333,594.525,966.822)">
                    <path d="M0.231,-0.42C0.12,-0.42 0.03,-0.325 0.03,-0.209C0.03,-0.092 0.107,0.002 0.245,0.002C0.33,0.002 0.376,-0.044 0.409,-0.085L0.398,-0.096C0.376,-0.075 0.34,-0.039 0.281,-0.039C0.22,-0.039 0.171,-0.117 0.171,-0.209C0.171,-0.301 0.21,-0.388 0.27,-0.388C0.324,-0.388 0.336,-0.349 0.324,-0.289C0.311,-0.22 0.412,-0.209 0.412,-0.278C0.412,-0.368 0.353,-0.42 0.231,-0.42Z" style="fill:white;fill-rule:nonzero;"/>
                </g>
            </g>
            <g transform="matrix(0.975326,-0.22217,0.222101,0.975024,-198.418,161.786)">
                <g transform="matrix(61.3333,0,0,61.3333,620.033,962.251)">
                    <path d="M0.119,-0.635C0.08,-0.635 0.049,-0.604 0.049,-0.565C0.049,-0.527 0.08,-0.496 0.119,-0.496C0.157,-0.496 0.188,-0.527 0.188,-0.565C0.188,-0.604 0.157,-0.635 0.119,-0.635ZM0.165,-0.454C0.165,-0.417 0.088,-0.398 0.049,-0.4L0.049,0.002L0.188,0.002L0.188,-0.454L0.165,-0.454Z" style="fill:white;fill-rule:nonzero;"/>
                </g>
            </g>
            <g transform="matrix(0.960901,-0.27801,0.277924,0.960603,-241.846,214.003)">
                <g transform="matrix(61.3333,0,0,61.3333,633.816,959.356)">
                    <path d="M0.263,-0.622L0.212,-0.49L0.269,-0.49L0.354,-0.622L0.263,-0.622ZM0.246,-0.433C0.127,-0.433 0.03,-0.334 0.03,-0.212C0.03,-0.09 0.127,0.009 0.246,0.009C0.364,0.009 0.461,-0.09 0.461,-0.212C0.461,-0.334 0.364,-0.433 0.246,-0.433ZM0.246,-0.413C0.291,-0.413 0.329,-0.323 0.329,-0.212C0.329,-0.101 0.291,-0.011 0.246,-0.011C0.2,-0.011 0.162,-0.101 0.162,-0.212C0.162,-0.323 0.2,-0.413 0.246,-0.413Z" style="fill:white;fill-rule:nonzero;"/>
                </g>
            </g>
            <g transform="matrix(0.934376,-0.357156,0.357046,0.934087,-295.863,299.744)">
                <g transform="matrix(61.3333,0,0,61.3333,663.809,950.647)">
                    <path d="M0.166,-0.454C0.166,-0.417 0.089,-0.398 0.05,-0.4L0.05,0.002L0.189,0.002L0.189,-0.352C0.234,-0.38 0.317,-0.376 0.317,-0.295L0.317,0.002L0.454,0.002L0.454,-0.298C0.454,-0.371 0.385,-0.415 0.326,-0.415C0.252,-0.415 0.211,-0.39 0.189,-0.367L0.189,-0.454L0.166,-0.454Z" style="fill:white;fill-rule:nonzero;"/>
                </g>
            </g>
            <g transform="matrix(0.878156,-0.479022,0.478873,0.877884,-359.798,453.73)">
                <g transform="matrix(61.3333,0,0,61.3333,709.634,931.902)">
                    <path d="M0.27,-0.643C0.173,-0.643 0.082,-0.615 0.048,-0.551C0.017,-0.492 0.021,-0.395 0.1,-0.351C0.25,-0.267 0.385,-0.255 0.385,-0.144C0.385,-0.073 0.347,-0.014 0.273,-0.014C0.16,-0.014 0.143,-0.08 0.158,-0.149C0.181,-0.255 -0.014,-0.255 0.042,-0.111C0.073,-0.037 0.157,0.016 0.256,0.016C0.41,0.016 0.488,-0.048 0.513,-0.123C0.542,-0.208 0.511,-0.282 0.456,-0.322C0.335,-0.411 0.161,-0.426 0.161,-0.511C0.161,-0.619 0.279,-0.631 0.334,-0.612C0.371,-0.599 0.384,-0.569 0.369,-0.502C0.363,-0.472 0.39,-0.449 0.422,-0.447C0.459,-0.445 0.493,-0.49 0.476,-0.54C0.452,-0.613 0.365,-0.643 0.27,-0.643Z" style="fill:white;fill-rule:nonzero;"/>
                </g>
            </g>
            <g transform="matrix(0.835042,-0.550749,0.550578,0.834784,-381.669,558.871)">
                <g transform="matrix(61.3333,0,0,61.3333,740.26,915.004)">
                    <path d="M0.23,-0.42C0.119,-0.42 0.03,-0.325 0.03,-0.209C0.03,-0.092 0.106,0.002 0.244,0.002C0.31,0.002 0.359,-0.028 0.398,-0.077L0.387,-0.089C0.365,-0.068 0.339,-0.039 0.28,-0.039C0.22,-0.039 0.171,-0.117 0.171,-0.209L0.171,-0.212L0.418,-0.212L0.426,-0.212C0.426,-0.345 0.364,-0.42 0.23,-0.42ZM0.269,-0.376C0.337,-0.376 0.339,-0.296 0.337,-0.243L0.173,-0.243C0.181,-0.319 0.217,-0.376 0.269,-0.376Z" style="fill:white;fill-rule:nonzero;"/>
                </g>
            </g>
            <g transform="matrix(0.792862,-0.60991,0.609721,0.792616,-390.189,652.388)">
                <g transform="matrix(61.3333,0,0,61.3333,763.817,899.435)">
                    <path d="M0.231,-0.42C0.12,-0.42 0.03,-0.325 0.03,-0.209C0.03,-0.092 0.107,0.002 0.245,0.002C0.33,0.002 0.376,-0.044 0.409,-0.085L0.398,-0.096C0.376,-0.075 0.34,-0.039 0.281,-0.039C0.22,-0.039 0.171,-0.117 0.171,-0.209C0.171,-0.301 0.21,-0.388 0.27,-0.388C0.324,-0.388 0.336,-0.349 0.324,-0.289C0.311,-0.22 0.412,-0.209 0.412,-0.278C0.412,-0.368 0.353,-0.42 0.231,-0.42Z" style="fill:white;fill-rule:nonzero;"/>
                </g>
            </g>
            <g transform="matrix(0.740214,-0.672832,0.672623,0.739985,-389.687,758.175)">
                <g transform="matrix(61.3333,0,0,61.3333,785.683,882.806)">
                    <path d="M0.165,-0.454C0.165,-0.417 0.088,-0.398 0.05,-0.4L0.05,-0.11C0.05,-0.035 0.119,0.009 0.179,0.009C0.269,0.009 0.311,-0.028 0.33,-0.055C0.332,0.054 0.454,0.026 0.524,0.002L0.524,-0.017C0.478,-0.017 0.468,-0.036 0.468,-0.069L0.468,-0.454L0.445,-0.454C0.445,-0.417 0.368,-0.398 0.33,-0.4L0.33,-0.064C0.289,-0.027 0.188,-0.022 0.188,-0.113L0.188,-0.454L0.165,-0.454Z" style="fill:white;fill-rule:nonzero;"/>
                </g>
            </g>
            <g transform="matrix(0.681604,-0.732145,0.731918,0.681392,-371.1,867.656)">
                <g transform="matrix(61.3333,0,0,61.3333,810.932,859.793)">
                    <path d="M0.166,-0.454C0.166,-0.417 0.089,-0.398 0.05,-0.4L0.05,0.002L0.189,0.002L0.189,-0.352C0.234,-0.38 0.317,-0.376 0.317,-0.295L0.317,0.002L0.454,0.002L0.454,-0.298C0.454,-0.371 0.385,-0.415 0.326,-0.415C0.252,-0.415 0.211,-0.39 0.189,-0.367L0.189,-0.454L0.166,-0.454Z" style="fill:white;fill-rule:nonzero;"/>
                </g>
            </g>
            <g transform="matrix(0.618168,-0.78644,0.786196,0.617977,-339.879,974.31)">
                <g transform="matrix(61.3333,0,0,61.3333,832.487,836.622)">
                    <path d="M0.351,-0.739L0.351,-0.381C0.326,-0.407 0.288,-0.421 0.231,-0.421C0.12,-0.421 0.03,-0.326 0.03,-0.209C0.03,-0.093 0.106,0.01 0.245,0.01C0.293,0.01 0.327,-0.011 0.351,-0.043L0.351,-0.022C0.391,-0.023 0.466,-0.01 0.47,0.018L0.488,0.018L0.488,-0.607C0.435,-0.607 0.37,-0.642 0.364,-0.739L0.351,-0.739ZM0.27,-0.387C0.315,-0.387 0.338,-0.36 0.351,-0.329L0.351,-0.1C0.337,-0.065 0.315,-0.034 0.28,-0.034C0.22,-0.034 0.171,-0.117 0.171,-0.209C0.171,-0.322 0.209,-0.387 0.27,-0.387Z" style="fill:white;fill-rule:nonzero;"/>
                </g>
            </g>
            <g transform="matrix(0.54635,-0.837927,0.837667,0.546181,-291.049,1082.63)">
                <g transform="matrix(61.3333,0,0,61.3333,853.51,809.682)">
                    <path d="M0.255,-0.434C0.178,-0.434 0.086,-0.411 0.074,-0.364C0.044,-0.253 0.183,-0.268 0.175,-0.326C0.164,-0.4 0.218,-0.412 0.249,-0.405C0.293,-0.396 0.293,-0.339 0.293,-0.294C0.199,-0.203 0.051,-0.235 0.031,-0.132C0.018,-0.058 0.076,0.002 0.199,0.002C0.241,0.002 0.273,-0.012 0.294,-0.033C0.302,0.002 0.335,0.018 0.371,0.018C0.432,0.018 0.464,0.002 0.478,-0.009L0.478,-0.025C0.441,-0.014 0.43,-0.037 0.43,-0.066L0.43,-0.299C0.43,-0.402 0.332,-0.433 0.255,-0.434ZM0.293,-0.261C0.293,-0.261 0.293,-0.071 0.293,-0.071C0.279,-0.049 0.258,-0.03 0.23,-0.03C0.174,-0.03 0.133,-0.064 0.15,-0.134C0.167,-0.202 0.231,-0.207 0.293,-0.261Z" style="fill:white;fill-rule:nonzero;"/>
                </g>
            </g>
            <g transform="matrix(0.481678,-0.876702,0.87643,0.481529,-236.466,1169.4)">
                <g transform="matrix(61.3333,0,0,61.3333,870.014,784.333)">
                    <path d="M0.166,-0.454C0.166,-0.437 0.152,-0.428 0.141,-0.421C0.118,-0.408 0.086,-0.399 0.05,-0.4L0.05,0.002L0.189,0.002L0.189,-0.319C0.205,-0.416 0.333,-0.4 0.309,-0.312C0.287,-0.233 0.403,-0.235 0.409,-0.302C0.416,-0.369 0.373,-0.417 0.297,-0.42C0.252,-0.423 0.211,-0.396 0.189,-0.369L0.189,-0.454L0.166,-0.454Z" style="fill:white;fill-rule:nonzero;"/>
                </g>
            </g>
            <g transform="matrix(0.43718,-0.899718,0.89944,0.437045,-188.373,1222.63)">
                <g transform="matrix(61.3333,0,0,61.3333,882.385,761.581)">
                    <path d="M0.119,-0.635C0.08,-0.635 0.049,-0.604 0.049,-0.565C0.049,-0.527 0.08,-0.496 0.119,-0.496C0.157,-0.496 0.188,-0.527 0.188,-0.565C0.188,-0.604 0.157,-0.635 0.119,-0.635ZM0.165,-0.454C0.165,-0.417 0.088,-0.398 0.049,-0.4L0.049,0.002L0.188,0.002L0.188,-0.454L0.165,-0.454Z" style="fill:white;fill-rule:nonzero;"/>
                </g>
            </g>
            <g transform="matrix(0.382841,-0.92415,0.923863,0.382722,-143.185,1283.67)">
                <g transform="matrix(61.3333,0,0,61.3333,888.887,748.779)">
                    <path d="M0.255,-0.434C0.178,-0.434 0.086,-0.411 0.074,-0.364C0.044,-0.253 0.183,-0.268 0.175,-0.326C0.164,-0.4 0.218,-0.412 0.249,-0.405C0.293,-0.396 0.293,-0.339 0.293,-0.294C0.199,-0.203 0.051,-0.235 0.031,-0.132C0.018,-0.058 0.076,0.002 0.199,0.002C0.241,0.002 0.273,-0.012 0.294,-0.033C0.302,0.002 0.335,0.018 0.371,0.018C0.432,0.018 0.464,0.002 0.478,-0.009L0.478,-0.025C0.441,-0.014 0.43,-0.037 0.43,-0.066L0.43,-0.299C0.43,-0.402 0.332,-0.433 0.255,-0.434ZM0.293,-0.261C0.293,-0.261 0.293,-0.071 0.293,-0.071C0.279,-0.049 0.258,-0.03 0.23,-0.03C0.174,-0.03 0.133,-0.064 0.15,-0.134C0.167,-0.202 0.231,-0.207 0.293,-0.261Z" style="fill:white;fill-rule:nonzero;"/>
                </g>
            </g>
        </g>
        <g transform="matrix(0.523397,0,0,0.523397,638.429,385.688)">
            <g transform="matrix(0.974104,0.2261,-0.2261,0.974104,273.207,-98.1434)">
                <g transform="matrix(40,0,0,40,565.054,1143.63)">
                    <path d="M0.377,-0.641C0.19,-0.641 0.05,-0.503 0.05,-0.313C0.05,-0.086 0.229,0.017 0.387,0.017C0.408,0.016 0.429,0.015 0.448,0.012C0.498,0.005 0.528,-0.011 0.553,-0.03C0.574,-0.046 0.59,-0.063 0.603,-0.082C0.615,-0.099 0.588,-0.118 0.577,-0.1C0.557,-0.072 0.528,-0.048 0.5,-0.035C0.464,-0.021 0.428,-0.015 0.392,-0.016C0.237,-0.025 0.218,-0.194 0.218,-0.314C0.218,-0.456 0.258,-0.611 0.391,-0.611C0.483,-0.611 0.49,-0.543 0.475,-0.476C0.453,-0.37 0.645,-0.365 0.59,-0.514C0.554,-0.61 0.469,-0.641 0.377,-0.641Z" style="fill:white;fill-rule:nonzero;"/>
                </g>
            </g>
            <g transform="matrix(0.984418,0.175843,-0.175843,0.984418,211.28,-85.7708)">
                <g transform="matrix(40,0,0,40,589.609,1149.28)">
                    <path d="M0.274,-0.622L0.223,-0.49L0.28,-0.49L0.365,-0.622L0.274,-0.622ZM0.255,-0.434C0.178,-0.434 0.086,-0.411 0.074,-0.364C0.044,-0.253 0.183,-0.268 0.175,-0.326C0.164,-0.4 0.218,-0.412 0.249,-0.405C0.293,-0.396 0.293,-0.339 0.293,-0.294C0.199,-0.203 0.051,-0.235 0.031,-0.132C0.018,-0.058 0.076,0.002 0.199,0.002C0.241,0.002 0.273,-0.012 0.294,-0.033C0.302,0.002 0.335,0.018 0.371,0.018C0.432,0.018 0.464,0.002 0.478,-0.009L0.478,-0.025C0.441,-0.014 0.43,-0.037 0.43,-0.066L0.43,-0.299C0.43,-0.402 0.332,-0.433 0.255,-0.434ZM0.293,-0.261C0.293,-0.261 0.293,-0.071 0.293,-0.071C0.279,-0.049 0.258,-0.03 0.23,-0.03C0.174,-0.03 0.133,-0.064 0.15,-0.134C0.167,-0.202 0.231,-0.207 0.293,-0.261Z" style="fill:white;fill-rule:nonzero;"/>
                </g>
            </g>
            <g transform="matrix(0.991389,0.130946,-0.130946,0.991389,156.189,-69.7984)">
                <g transform="matrix(40,0,0,40,608.829,1152.73)">
                    <path d="M0.351,-0.739L0.351,-0.381C0.326,-0.407 0.288,-0.421 0.231,-0.421C0.12,-0.421 0.03,-0.326 0.03,-0.209C0.03,-0.093 0.106,0.01 0.245,0.01C0.293,0.01 0.327,-0.011 0.351,-0.043L0.351,-0.022C0.391,-0.023 0.466,-0.01 0.47,0.018L0.488,0.018L0.488,-0.607C0.435,-0.607 0.37,-0.642 0.364,-0.739L0.351,-0.739ZM0.27,-0.387C0.315,-0.387 0.338,-0.36 0.351,-0.329L0.351,-0.1C0.337,-0.065 0.315,-0.034 0.28,-0.034C0.22,-0.034 0.171,-0.117 0.171,-0.209C0.171,-0.322 0.209,-0.387 0.27,-0.387Z" style="fill:white;fill-rule:nonzero;"/>
                </g>
            </g>
            <g transform="matrix(0.995508,0.0946786,-0.0946786,0.995508,112.226,-54.4748)">
                <g transform="matrix(40,0,0,40,630.186,1155.44)">
                    <path d="M0.119,-0.635C0.08,-0.635 0.049,-0.604 0.049,-0.565C0.049,-0.527 0.08,-0.496 0.119,-0.496C0.157,-0.496 0.188,-0.527 0.188,-0.565C0.188,-0.604 0.157,-0.635 0.119,-0.635ZM0.165,-0.454C0.165,-0.417 0.088,-0.398 0.049,-0.4L0.049,0.002L0.188,0.002L0.188,-0.454L0.165,-0.454Z" style="fill:white;fill-rule:nonzero;"/>
                </g>
            </g>
            <g transform="matrix(0.998187,0.0601816,-0.0601816,0.998187,70.7552,-36.3958)">
                <g transform="matrix(40,0,0,40,639.596,1156.43)">
                    <path d="M0.479,-0.426L0.332,-0.426L0.064,-0.426L0.057,-0.281C0.101,-0.357 0.166,-0.391 0.259,-0.391L0.313,-0.392L0.043,0.005L0.208,0.005L0.208,0.004L0.456,0.004L0.464,-0.141C0.42,-0.065 0.355,-0.03 0.262,-0.03L0.231,-0.03L0.479,-0.392L0.479,-0.392L0.479,-0.426Z" style="fill:white;fill-rule:nonzero;"/>
                </g>
            </g>
            <g transform="matrix(0.999945,-0.0105044,0.0105044,0.999945,-12.1262,7.12634)">
                <g transform="matrix(40,0,0,40,672.336,1157.93)">
                    <rect x="0.05" y="-0.263" width="0.346" height="0.047" style="fill:white;fill-rule:nonzero;"/>
                </g>
            </g>
            <g transform="matrix(0.997687,-0.067981,0.067981,0.997687,-77.0395,50.4088)">
                <g transform="matrix(40,0,0,40,702.136,1157.14)">
                    <path d="M0.181,-0.63C0.181,-0.6 0.082,-0.555 0.02,-0.546L0.02,-0.51L0.077,-0.511L0.077,0.003L0.204,0.003L0.204,-0.63L0.181,-0.63Z" style="fill:white;fill-rule:nonzero;"/>
                </g>
            </g>
            <g transform="matrix(0.99391,-0.110195,0.110195,0.99391,-123.094,85.6575)">
                <g transform="matrix(40,0,0,40,713.413,1156.48)">
                    <path d="M0.266,-0.604C0.37,-0.602 0.401,-0.479 0.399,-0.381C0.398,-0.328 0.372,-0.299 0.345,-0.279C0.317,-0.26 0.289,-0.256 0.259,-0.258C0.189,-0.263 0.156,-0.323 0.155,-0.418C0.152,-0.554 0.214,-0.604 0.266,-0.604ZM0.27,-0.637C0.11,-0.637 0.048,-0.517 0.05,-0.416C0.052,-0.291 0.145,-0.228 0.254,-0.23C0.341,-0.231 0.384,-0.27 0.402,-0.296C0.402,-0.187 0.367,-0.018 0.25,-0.016C0.167,-0.014 0.16,-0.078 0.172,-0.144C0.191,-0.248 0.016,-0.25 0.069,-0.105C0.103,-0.011 0.181,0.009 0.264,0.008C0.433,0.005 0.536,-0.14 0.536,-0.326C0.536,-0.54 0.436,-0.637 0.27,-0.637Z" style="fill:white;fill-rule:nonzero;"/>
                </g>
            </g>
            <g transform="matrix(0.986902,-0.16132,0.16132,0.986902,-176.495,133.954)">
                <g transform="matrix(40,0,0,40,736.676,1153.88)">
                    <path d="M0.16,-0.64C0.147,-0.64 0.136,-0.639 0.127,-0.637C0.053,-0.619 0.044,-0.516 0.053,-0.48C0.115,-0.561 0.282,-0.513 0.404,-0.533C0.419,-0.536 0.433,-0.546 0.436,-0.548C0.401,-0.444 0.325,-0.396 0.256,-0.324C0.187,-0.252 0.084,-0.149 0.114,-0.036C0.128,0.016 0.237,0.015 0.268,0.007C0.257,-0.077 0.303,-0.197 0.348,-0.283C0.401,-0.385 0.488,-0.493 0.488,-0.635C0.43,-0.594 0.248,-0.64 0.16,-0.64Z" style="fill:white;fill-rule:nonzero;"/>
                </g>
            </g>
            <g transform="matrix(0.978257,-0.207394,0.207394,0.978257,-222.18,181.96)">
                <g transform="matrix(40,0,0,40,756.733,1150.63)">
                    <path d="M0.16,-0.64C0.147,-0.64 0.136,-0.639 0.127,-0.637C0.053,-0.619 0.044,-0.516 0.053,-0.48C0.115,-0.561 0.282,-0.513 0.404,-0.533C0.419,-0.536 0.433,-0.546 0.436,-0.548C0.401,-0.444 0.325,-0.396 0.256,-0.324C0.187,-0.252 0.084,-0.149 0.114,-0.036C0.128,0.016 0.237,0.015 0.268,0.007C0.257,-0.077 0.303,-0.197 0.348,-0.283C0.401,-0.385 0.488,-0.493 0.488,-0.635C0.43,-0.594 0.248,-0.64 0.16,-0.64Z" style="fill:white;fill-rule:nonzero;"/>
                </g>
            </g>
        </g>
        <g transform="matrix(0.578156,0,0,0.580376,683.716,352.62)">
            <circle cx="537.142" cy="707.212" r="489.977" style="fill:none;stroke:white;stroke-width:7.83px;"/>
        </g>
        <g transform="matrix(0.562113,0,0,0.562113,816.147,594.438)">
            <path d="M386.607,259.862L386.608,259.863C386.608,259.863 386.713,259.664 386.836,259.432C388.322,256.646 395.792,242.681 396.074,242.095C398.01,238.076 400.058,234.101 402.13,230.15C408.315,218.358 413.769,206.189 420.872,194.889C443.124,159.493 475.259,124.627 520.632,124.627C522.858,124.627 524.666,122.819 524.666,120.592C524.666,118.366 522.858,116.558 520.632,116.558C472.373,116.558 437.708,152.947 414.04,190.594C406.825,202.072 401.267,214.423 394.984,226.401C392.869,230.433 390.78,234.491 388.804,238.592C388.526,239.169 381.176,252.896 379.715,255.636C379.549,255.948 379.45,256.136 379.433,256.17C379.22,256.586 379.161,256.84 379.149,256.882C378.595,258.784 379.433,259.911 379.694,260.292C380.492,261.457 381.6,262.046 383.023,262.046C384.583,262.046 385.937,261.159 386.607,259.862Z" style="fill:white;"/>
            <path d="M516.142,123.482C516.253,124.821 516.516,127.992 516.577,128.543C516.972,132.096 516.836,136.169 515.492,139.525C514.912,140.975 513.598,142.517 512.085,144.192C509.202,147.384 505.564,150.825 502.861,154.258C498.822,159.39 497.041,164.702 499.292,169.391C500.962,172.871 503.384,176.914 504.817,181.08C505.922,184.292 506.495,187.593 504.8,190.624C503.562,192.836 499.714,195.735 496.839,198.632C493.929,201.566 491.965,204.658 491.766,207.067C491.657,208.383 492.142,210.117 493.398,211.818C494.657,213.523 496.961,215.432 497.678,216.46C500.57,220.603 501.797,225.787 499.522,230.465C498.646,232.267 497.211,233.594 495.642,234.794C493.615,236.344 491.35,237.669 489.277,239.119C485.734,241.598 482.749,244.462 481.352,248.521C479.959,252.565 480.135,256.8 480.54,261.09C480.852,264.395 481.333,267.736 480.642,270.999C478.757,279.896 474.241,286.067 468.054,288.636C461.845,291.213 454.186,290.076 446.344,285.092C444.464,283.898 441.969,284.454 440.774,286.334C439.58,288.213 440.136,290.709 442.016,291.903C452.508,298.571 462.84,299.537 471.148,296.089C479.477,292.631 485.999,284.647 488.536,272.671C489.397,268.608 488.963,264.447 488.574,260.331C488.278,257.2 487.966,254.099 488.982,251.147C490.082,247.952 493.071,246.241 495.966,244.347C500.243,241.549 504.53,238.62 506.78,233.994C510.369,226.612 508.859,218.381 504.296,211.842C503.67,210.944 501.129,208.24 500.11,207.167C500.178,207.079 500.25,206.988 500.319,206.89C500.9,206.059 501.694,205.196 502.568,204.316C505.994,200.862 510.368,197.2 511.843,194.563C514.182,190.38 514.359,185.912 513.318,181.452C512.036,175.953 508.757,170.462 506.567,165.899C506.102,164.931 506.405,163.921 506.875,162.876C507.417,161.675 508.244,160.467 509.202,159.249C511.796,155.954 515.306,152.666 518.074,149.601C520.329,147.105 522.118,144.686 522.984,142.524C524.805,137.976 525.133,132.468 524.598,127.652C524.516,126.92 524.203,122.603 524.083,121.754C523.875,120.283 523.161,119.591 523.025,119.444C522.217,118.567 521.322,118.269 520.557,118.174C519.696,118.066 518.843,118.211 518.015,118.697C517.862,118.786 516.006,119.61 516.006,122.44C516.006,122.801 516.053,123.15 516.142,123.482ZM523.473,124.56C523.81,124.077 524.075,123.395 524.075,122.44C524.075,123.218 523.855,123.944 523.473,124.56Z" style="fill:white;"/>
            <path d="M441.75,291.327C442.062,291.96 443.108,294.087 443.3,294.536C444.479,297.284 444.699,300.094 445.069,303.027C446.144,311.561 445.943,322.673 438.872,328.625C432.789,333.745 425.566,334.738 418.395,331.355C415.758,330.111 409.979,326.071 407.23,324.753C404.94,323.654 403.119,324.004 402.413,324.326C401.274,324.844 400.32,325.786 399.762,327.209C399.409,328.11 399.224,329.354 399.218,330.632C399.214,331.632 399.343,332.657 399.313,333.124C399.062,336.955 398.225,341.653 396.568,345.141C395.14,348.144 392.696,350.452 390.421,352.826C385.732,357.718 381.748,360.335 377.762,360.722C375.017,360.988 372.364,360.12 369.579,358.485C366.226,356.518 362.765,353.491 358.947,349.675C357.371,348.101 354.814,348.102 353.24,349.677C351.666,351.253 351.667,353.81 353.242,355.384C362.552,364.687 370.484,369.535 378.54,368.754C384.019,368.223 389.802,365.134 396.247,358.409C399.116,355.415 402.056,352.392 403.856,348.604C405.833,344.445 406.953,338.923 407.318,334.272C410,335.905 413.373,337.909 414.952,338.654C425.147,343.463 435.421,342.078 444.068,334.799C453.196,327.116 454.463,313.034 453.075,302.018C452.61,298.325 452.201,294.816 450.717,291.355C450.368,290.542 448.594,286.955 448.255,286.508C446.991,284.844 445.452,284.866 444.916,284.877C443.847,284.9 442.936,285.287 442.179,286.026C441.696,286.498 440.959,287.35 440.959,288.929C440.959,289.827 441.253,290.657 441.75,291.327ZM444.059,292.854C444.359,292.926 444.672,292.964 444.994,292.964C445.131,292.964 445.267,292.957 445.401,292.944C444.991,292.994 444.54,292.979 444.059,292.854ZM445.52,292.929L445.456,292.937L445.514,292.93L445.52,292.929ZM448.339,291.185C448.071,291.581 447.735,291.928 447.346,292.206C447.714,291.951 448.054,291.619 448.339,291.185ZM448.384,291.115L448.339,291.184L448.359,291.155L448.384,291.115ZM448.883,290.002L448.859,290.089L448.864,290.074L448.883,290.002ZM448.943,289.759L448.905,289.923L448.917,289.881L448.943,289.759ZM448.978,289.567L448.948,289.735L448.962,289.67L448.978,289.567ZM449.004,289.374L448.985,289.524L448.998,289.442L449.004,289.374ZM449.022,289.163L449.013,289.279L449.021,289.195L449.022,289.163Z" style="fill:white;"/>
            <path d="M298.076,329.553C300.025,328.885 309.172,325.753 310.206,325.426C313.256,324.459 316.247,323.424 319.176,322.115C327.566,318.368 334.549,312.729 342.184,307.74C355.542,299.012 373.531,277.894 383.414,265.147C387.669,259.659 395.768,241.632 399.116,236.456C400.325,234.586 399.789,232.086 397.919,230.877C396.049,229.668 393.549,230.204 392.34,232.074C389.062,237.141 381.203,254.83 377.037,260.203C367.598,272.376 350.527,292.649 337.77,300.985C330.494,305.739 323.88,311.176 315.885,314.747C313.235,315.93 310.527,316.859 307.768,317.733C306.433,318.156 294.646,322.076 293.43,322.837C291.372,324.126 291.405,325.945 291.451,326.622C291.512,327.516 291.833,328.338 292.484,329.06C292.869,329.487 293.738,330.415 295.586,330.415C296.526,330.415 297.391,330.093 298.076,329.553ZM295.83,322.353C296.47,322.391 297.071,322.579 297.596,322.883C297.175,322.617 296.603,322.391 295.83,322.353Z" style="fill:white;"/>
            <path d="M355.725,231.599C350.802,236.634 343.887,240.391 338.079,243.147C336.174,244.051 331.437,244.345 328.459,244.414C327.903,244.114 327.391,243.996 327.012,243.935C324.788,243.575 323.327,244.762 322.616,246.045C321.905,247.329 321.675,249.197 323.159,250.892C323.432,251.203 323.841,251.609 324.462,251.935C329.622,259.128 338.428,263.531 347.188,263.97C336.808,270.066 324.676,274.358 312.983,276.155C307.407,277.013 301.959,277.467 296.311,277.376C294.426,277.345 292.561,277.273 290.682,277.394L287.583,276.574C287.003,276.249 286.334,276.065 285.622,276.065C282.517,276.065 281.836,278.355 281.65,278.999C281.346,280.054 281.222,281.616 282.769,283.074C282.954,283.248 283.663,283.817 284.877,284.206C286.154,284.615 288.896,285.303 289.613,285.423C290.187,285.519 290.587,285.493 290.766,285.478C292.576,285.321 294.368,285.415 296.181,285.444C302.289,285.543 308.18,285.058 314.21,284.131C328.667,281.909 343.74,276.163 355.916,268.022C357.818,266.75 360.981,265.034 363.602,263.088C365.88,261.397 367.751,259.484 368.695,257.596C369.228,256.53 369.182,255.608 369.021,254.899C368.816,253.996 368.351,253.223 367.574,252.614C367.183,252.308 366.026,251.389 364.089,251.881C363.96,251.913 363.201,252.211 363.089,252.267C361.878,252.872 360.544,253.309 359.263,253.735C356.487,254.66 353.52,255.548 350.598,255.841C345.454,256.357 339.977,254.882 335.676,251.835C338.058,251.503 340.27,251.04 341.538,250.438C351.006,245.946 362.616,238.795 367.494,228.961C368.366,227.204 367.925,225.95 367.603,225.244C367.048,224.027 366.057,223.079 364.353,222.861C363.861,222.798 363.028,222.802 362.027,223.17C361.518,223.358 360.162,223.987 359.849,224.134C358.726,224.25 357.624,223.796 356.679,223.186C352.418,220.438 350.613,215.67 349.163,211.022C349.049,210.656 348.453,208.537 348.244,207.791C348.536,206.492 348.179,205.077 347.173,204.063C345.604,202.482 343.048,202.472 341.467,204.041C340.775,204.727 340.056,205.961 340.104,207.749C340.149,209.435 341.236,212.709 341.459,213.426C343.466,219.856 346.41,226.167 352.306,229.968C353.37,230.654 354.523,231.211 355.725,231.599ZM288.168,283.228C287.474,283.795 286.587,284.134 285.622,284.134C286.886,284.134 287.676,283.681 288.168,283.228Z" style="fill:white;"/>
            <path d="M366.367,190.288C365.826,191.148 365.339,191.906 364.98,192.437C362.783,195.683 358.212,200.631 353.286,202.977C350.908,204.109 348.431,204.705 346.289,203.273C344.438,202.036 341.93,202.534 340.692,204.385C339.455,206.237 339.953,208.745 341.805,209.982C346.379,213.04 351.678,212.68 356.755,210.263C363.007,207.286 368.875,201.08 371.663,196.96C373.006,194.975 376.063,189.952 377.296,187.899L377.549,187.479C377.561,187.458 377.571,187.431 377.576,187.397C379.055,184.55 377.56,183.331 375.582,182.917C374.616,181.76 373.381,181.05 372.06,181.863L372.034,181.865C371.047,181.958 370.014,182.138 368.978,182.258C368.168,182.352 367.347,182.495 366.604,182.18C365.486,181.705 364.688,180.541 364.095,179.306C363.407,177.87 363.026,176.247 363.191,174.9C363.355,173.557 364.391,172.649 365.475,171.805C367.291,170.392 369.483,169.305 371.21,168.282C377.709,164.433 385.147,158.059 388.737,151.361C391.925,145.414 391.924,137.91 389.664,131.656C389.031,129.904 387.978,127.879 387.329,125.824C386.993,124.761 386.629,123.691 387.12,122.731C388.063,120.888 390.477,120.102 392.905,119.27C396.534,118.027 400.466,117.153 403.121,115.963C417.541,109.501 427.37,94.463 425.785,78.487C425.565,76.271 423.588,74.65 421.372,74.87C419.156,75.09 417.535,77.068 417.755,79.284C418.999,91.82 411.136,103.528 399.821,108.599C396.771,109.965 391.947,110.857 387.995,112.498C384.368,114.005 381.421,116.151 379.935,119.056C378.721,121.43 378.612,124.023 379.199,126.653C379.801,129.35 381.244,132.1 382.074,134.399C383.582,138.57 383.751,143.582 381.625,147.549C378.673,153.056 372.441,158.174 367.098,161.338C364.64,162.794 361.443,164.441 359.112,166.638C357.004,168.625 355.534,171.027 355.181,173.922C354.786,177.153 355.725,181.226 357.714,184.431C359.171,186.777 361.17,188.64 363.451,189.608C364.384,190.004 365.365,190.206 366.367,190.288Z" style="fill:white;"/>
            <path d="M312.249,91.853L312.257,91.851C319.19,89.834 353.895,85.608 354.666,85.582C361.329,85.354 368.189,85.773 374.787,86.736C394.255,89.576 404.667,86.774 422.698,82.266C424.858,81.726 426.174,79.533 425.634,77.373C425.094,75.212 422.901,73.897 420.741,74.437C403.88,78.652 394.157,81.406 375.952,78.75C368.882,77.719 361.53,77.273 354.39,77.517C353.583,77.545 317.26,81.991 310.003,84.102C308.343,84.585 307.406,85.298 307.045,85.674C306.114,86.644 305.869,87.68 305.869,88.571C305.869,90.798 307.677,92.606 309.904,92.606C310.779,92.606 311.588,92.327 312.249,91.853ZM313.881,89.25L313.864,89.347L313.871,89.313L313.881,89.25ZM313.914,89.017L313.9,89.127L313.91,89.063L313.914,89.017ZM313.933,88.795L313.925,88.89L313.932,88.816L313.933,88.795Z" style="fill:white;"/>
            <path d="M365.682,85.771C366.979,86.053 368.387,85.69 369.393,84.683C370.481,83.596 370.691,82.399 370.542,81.288C370.496,80.946 370.019,78.153 366.777,77.764C365.107,77.563 355.746,77.27 349.499,77.815C346.215,78.101 337.19,79.186 333.92,79.54C324.318,80.578 314.147,82.282 305.045,85.57C275.241,96.336 251.489,109.663 233.986,137.246C226.695,148.738 220.058,160.463 216.048,173.568C212.265,185.929 210.741,198.276 210.285,211.128C209.442,234.928 210.828,266.482 221.674,291.312C229.197,308.533 241.212,322.56 259.844,329.078C267.243,331.667 279.35,333.625 289.307,331.445C291.483,330.969 292.862,328.816 292.386,326.641C291.91,324.465 289.757,323.086 287.582,323.562C279.106,325.418 268.807,323.665 262.509,321.461C241.896,314.25 230.721,296.397 224.683,275.931C218.395,254.62 217.676,230.429 218.35,211.414C218.78,199.273 220.191,187.606 223.764,175.929C227.561,163.523 233.897,152.449 240.8,141.57C257.264,115.623 279.751,103.287 307.787,93.16C316.296,90.086 325.811,88.533 334.787,87.563C338.022,87.213 346.95,86.137 350.2,85.854C355.464,85.395 364.487,85.724 365.682,85.771ZM362.658,82.925C362.771,83.345 362.962,83.781 363.279,84.206C362.991,83.812 362.784,83.378 362.658,82.925ZM363.535,79.138C362.687,80.064 362.451,81.063 362.511,82.014C362.464,80.99 362.805,79.951 363.535,79.138Z" style="fill:white;"/>
            <path d="M281.261,332.601C282.587,332.426 292.169,331.149 295.124,330.411C307.767,327.25 318.648,323.352 329.705,316.354C331.587,315.163 332.148,312.669 330.957,310.787C329.766,308.905 327.271,308.344 325.39,309.535C315.092,316.052 304.941,319.638 293.167,322.582C289.944,323.388 280.915,324.301 278.954,324.844C277.006,325.384 276.285,326.629 276.056,327.083C275.054,329.072 275.855,331.5 277.844,332.502C278.954,333.061 280.201,333.059 281.261,332.601Z" style="fill:white;"/>
            <path d="M354.292,353.971C355.897,353.439 357.055,351.925 357.055,350.143C357.055,348.619 356.378,347.603 355.442,346.894C354.815,346.42 353.502,345.626 351.539,346.317C350.621,346.64 345.871,350.127 344.186,351.198C339.44,354.212 334.43,356.826 329.278,359.071C315.12,365.24 297.993,364.491 282.937,362.345C260.791,359.188 237.448,352.576 221.529,335.663C212.937,326.535 208.821,316.184 203.898,304.95C200.579,297.378 191.141,275.963 189.764,267.765C189.395,265.569 187.313,264.085 185.117,264.454C182.921,264.823 181.437,266.906 181.806,269.102C183.252,277.708 193.023,300.24 196.507,308.189C201.811,320.293 206.396,331.358 215.653,341.194C232.837,359.452 257.891,366.925 281.799,370.334C298.278,372.683 317.005,373.221 332.502,366.469C338.036,364.057 343.415,361.247 348.512,358.01C349.653,357.285 353.323,354.665 354.292,353.971ZM348.993,350.382C349.055,351.935 349.757,352.953 350.897,353.573C349.813,352.901 349.071,351.73 348.993,350.382Z" style="fill:white;"/>
            <path d="M196.773,287.472C187.823,269.431 184.258,241.779 178.275,222.715C175.147,212.751 171.279,201.384 163.585,193.925C157.348,187.878 149.188,184.874 141.13,182.186C135.116,180.18 128.938,178.772 122.583,178.772C120.356,178.772 118.548,180.58 118.548,182.807C118.548,185.034 120.356,186.842 122.583,186.842C128.067,186.842 133.387,188.11 138.576,189.841C145.497,192.15 152.611,194.525 157.968,199.718C164.721,206.266 167.83,216.386 170.575,225.132C176.67,244.551 180.428,272.682 189.544,291.058C190.534,293.053 192.957,293.869 194.952,292.879C196.947,291.89 197.763,289.467 196.773,287.472Z" style="fill:white;"/>
            <path d="M123.357,188.999C123.975,188.999 124.302,189.652 124.757,190.285C125.867,191.834 126.745,194.01 127.494,196.441C130,204.576 130.832,215.459 130.49,219.056C126.854,257.34 109.696,291.731 107.656,330.386C106.598,350.448 108.381,365.811 113.39,379.021C120.879,398.775 135.615,413.795 159.579,432.368C169.476,440.038 213.268,458.067 220.92,459.823C223.09,460.321 225.257,458.963 225.755,456.793C226.253,454.622 224.895,452.456 222.725,451.958C215.468,450.293 173.908,433.263 164.522,425.989C142.039,408.564 127.962,394.693 120.935,376.16C116.267,363.847 114.728,349.511 115.715,330.811C117.748,292.271 134.898,257.99 138.524,219.819C138.98,215.01 137.677,198.83 133.54,189.555C131.088,184.059 127.364,180.929 123.357,180.929C121.13,180.929 119.322,182.737 119.322,184.964C119.322,187.191 121.13,188.999 123.357,188.999Z" style="fill:white;"/>
            <path d="M211.069,397.673C211.283,398.347 212.218,401.317 212.302,401.813C212.979,405.811 213.503,409.862 213.888,413.898C215,425.576 215.29,437.197 215.29,448.922C215.29,485.078 214.607,520.65 207.205,556.124C206.75,558.304 208.151,560.443 210.331,560.898C212.511,561.353 214.65,559.952 215.105,557.772C222.621,521.752 223.36,485.635 223.36,448.922C223.36,436.941 223.058,425.066 221.921,413.133C221.518,408.903 220.968,404.656 220.259,400.466C220.111,399.595 218.66,394.807 218.374,394.192C217.431,392.17 215.781,391.939 215.381,391.869C213.903,391.609 212.598,392.01 211.551,393.295C211.252,393.662 210.64,394.43 210.64,395.864C210.64,396.515 210.795,397.129 211.069,397.673ZM217.276,398.947C216.648,399.478 215.856,399.821 214.987,399.886C215.827,399.85 216.597,399.554 217.276,398.947ZM218.704,396.078C218.666,396.814 218.43,397.498 218.048,398.077C218.329,397.678 218.662,397.044 218.704,396.078Z" style="fill:white;"/>
            <path d="M213.847,399.014C214.269,399.702 215.053,400.982 215.128,401.121C216.411,403.511 217.756,405.866 219.016,408.271C222.9,415.683 226.297,423.363 230.429,430.64C236.774,441.815 243.192,455.295 251.398,466.926C260.076,479.226 270.754,489.443 285.085,493.407C298.623,497.152 311.203,495.738 320.045,488.73C326.012,484.001 330.39,476.692 332.107,466.391C332.607,463.388 332.89,460.277 332.946,457.172C336.14,460.569 340.507,464.645 345.186,466.99C349.543,469.173 354.165,469.904 358.573,468.185C364.926,465.707 369.433,457.981 371.194,448.61C372.627,440.984 372.374,432.373 370.51,425.544C369.106,420.402 366.736,416.24 363.704,413.814C361.965,412.423 359.424,412.705 358.033,414.444C356.641,416.183 356.924,418.724 358.663,420.116C360.58,421.65 361.837,424.417 362.725,427.669C364.297,433.428 364.471,440.69 363.263,447.12C362.62,450.543 361.589,453.728 360.112,456.275C358.929,458.315 357.498,459.942 355.64,460.667C352.667,461.827 349.598,460.44 346.761,458.596C343.096,456.216 339.84,452.805 337.558,450.266C337.107,449.764 331.856,442.731 330.783,441.348C328.526,438.439 325.232,440.176 325.166,440.22C324.868,440.418 323.106,441.586 323.389,444.218C323.508,445.331 324.623,450.581 324.667,451.067C325.091,455.666 324.906,460.508 324.147,465.065C322.822,473.013 319.637,478.757 315.033,482.406C308.018,487.966 297.976,488.6 287.236,485.629C274.719,482.167 265.571,473.018 257.992,462.274C249.941,450.862 243.672,437.62 237.447,426.656C233.359,419.457 230.006,411.857 226.164,404.525C224.891,402.097 223.534,399.717 222.237,397.303C222.055,396.964 220.144,393.752 219.45,393.045C218.568,392.145 217.668,391.891 217.154,391.797C215.66,391.523 214.479,391.985 213.545,392.912C213.038,393.416 212.331,394.283 212.331,395.864C212.331,397.138 212.923,398.275 213.847,399.014ZM220.393,396.1C220.354,396.785 220.143,397.425 219.803,397.977C220.106,397.523 220.355,396.918 220.393,396.1Z" style="fill:white;"/>
            <path d="M406.322,406.225C406.624,409.239 406.701,412.268 406.614,415.293C406.468,420.378 406.401,429.258 403.963,436.114C402.729,439.586 400.972,442.605 397.662,443.412C392.649,444.633 388.463,442.386 384.911,439.16C380.635,435.277 377.237,429.944 374.575,425.719C372.542,422.494 370.404,419.393 367.995,416.431C367.267,415.536 365.922,413.464 365.061,412.549C364.232,411.669 363.388,411.245 362.847,411.071C361.234,410.554 359.928,410.961 358.888,411.815C358.26,412.332 357.317,413.307 357.317,415.308C357.317,417.029 358.397,418.5 359.916,419.078C360.517,419.91 361.357,421.059 361.735,421.523C363.938,424.232 365.889,427.072 367.748,430.022C371.4,435.817 376.399,443.327 382.731,447.735C387.599,451.124 393.209,452.803 399.573,451.252C405.503,449.807 409.355,445.038 411.567,438.818C414.296,431.141 414.516,421.218 414.68,415.526C414.704,414.698 414.717,413.871 414.717,413.044C414.972,413.37 415.184,413.625 415.341,413.785C423.233,421.849 431.846,427.763 439.723,427.359C445.432,427.067 451.148,423.831 456.08,415.381C458.265,411.638 459.563,407.313 460.713,403.164C462.348,397.261 463.133,391.281 463.361,385.176C463.444,382.95 461.705,381.076 459.479,380.993C457.254,380.91 455.38,382.649 455.297,384.875C455.092,390.35 454.403,395.715 452.936,401.009C451.969,404.5 450.949,408.164 449.111,411.313C446.722,415.406 444.272,417.86 441.573,418.842C438.665,419.9 435.643,419.081 432.574,417.435C428.716,415.366 424.86,411.974 421.108,408.141C420.037,407.045 416.298,401.309 413.911,399.053C412.302,397.533 410.673,397.054 409.681,397.054C407.055,397.054 405.861,398.422 405.295,400.187C405.073,400.878 404.975,401.794 405.189,402.862C405.368,403.753 406.22,405.963 406.322,406.225ZM365.38,415.539L365.376,415.59L365.38,415.553L365.38,415.539Z" style="fill:white;"/>
            <path d="M458.044,383.603C458.312,383.914 458.693,384.353 458.771,384.436C459.94,385.699 461.171,386.912 462.415,388.099C465.999,391.514 470.312,394.285 474.652,396.626C480.767,399.924 492.472,403.462 500.835,401.805C504.257,401.127 507.181,399.637 509.295,397.246C511.394,394.871 512.775,391.561 512.775,386.97C512.775,377.072 507.926,369.159 500.73,362.99C490.815,354.49 476.328,349.395 465.687,346.737C429.492,337.693 391.181,358.078 361.041,377.794C350.395,384.757 335.009,401.204 324.526,408.328C322.685,409.579 322.205,412.091 323.457,413.933C324.709,415.775 327.22,416.254 329.062,415.002C339.513,407.9 354.844,391.49 365.458,384.547C393.827,365.989 429.662,346.054 463.731,354.566C473.351,356.969 486.514,361.432 495.478,369.117C500.867,373.737 504.705,379.557 504.705,386.97C504.705,389.146 504.244,390.776 503.249,391.901C501.634,393.729 498.951,394.169 496.068,394.181C489.85,394.207 482.607,391.748 478.483,389.523C474.767,387.519 471.051,385.181 467.983,382.257C466.859,381.186 465.746,380.092 464.69,378.952C464.443,378.685 463.077,377.165 462.6,376.847C461.671,376.229 460.825,376.135 460.287,376.134C459.133,376.132 458.224,376.555 457.503,377.227C456.887,377.801 456.207,378.696 456.207,380.221C456.207,381.637 456.938,382.884 458.044,383.603ZM463.826,382.073C464.083,381.601 464.277,381 464.277,380.221C464.277,380.889 464.115,381.519 463.826,382.073Z" style="fill:white;"/>
            <path d="M345.212,390.134L344.654,390.638C340.871,394.042 321.645,411.253 319.581,413.022C311.748,419.733 305.062,427.327 296.017,432.521C270.199,447.347 247.784,457.031 218.652,449.974C216.487,449.45 214.304,450.781 213.78,452.945C213.256,455.11 214.587,457.293 216.752,457.817C248.074,465.405 272.277,455.459 300.036,439.519C309.525,434.069 316.614,426.191 324.832,419.15C326.908,417.371 346.247,400.061 350.051,396.637C350.479,396.252 350.731,396.023 350.773,395.983C353.42,393.468 351.182,390.572 351.112,390.486C350.597,389.862 348.946,388.069 346.194,389.444C345.825,389.629 345.496,389.863 345.212,390.134Z" style="fill:white;"/>
            <path d="M145.704,232.579C145.657,232.909 145.65,233.25 145.689,233.597C145.774,234.367 146.523,236.732 147.474,238.752C148.212,240.32 149.104,241.667 149.727,242.267C151.554,244.028 153.45,243.792 154.728,243.176C155.512,242.797 157.303,241.657 157.303,238.291C157.303,237.18 156.002,233.096 154.676,230.539C153.757,228.767 152.617,227.633 152.02,227.28C150.634,226.459 149.358,226.552 148.315,226.957C147.459,227.29 145.546,228.267 145.546,231.46C145.546,231.848 145.601,232.224 145.704,232.579Z" style="fill:white;"/>
        </g>
    </g>
</svg>
