<?xml version="1.0" encoding="UTF-8" standalone="no"?>
<!DOCTYPE svg PUBLIC "-//W3C//DTD SVG 1.1//EN" "http://www.w3.org/Graphics/SVG/1.1/DTD/svg11.dtd">
<svg width="100%" height="100%" viewBox="0 0 783 783" version="1.1" xmlns="http://www.w3.org/2000/svg" xmlns:xlink="http://www.w3.org/1999/xlink" xml:space="preserve" xmlns:serif="http://www.serif.com/" style="fill-rule:evenodd;clip-rule:evenodd;stroke-linejoin:round;stroke-miterlimit:2;">
    <g transform="matrix(1.53007,0,0,1.53007,0,0)">
        <path d="M253.384,69.613C265.207,69.31 277.326,70.458 288.903,72.37C375.228,86.627 439.573,151.756 485.064,222.453C501.036,247.275 502.952,246.917 486.918,272.624C470.154,299.843 450.54,325.199 428.407,348.266C382.754,395.471 326.818,432.135 259.282,433.276C195.971,433.816 141.738,402.153 96.635,359.977C68.959,333.871 44.86,304.216 24.968,271.784C20.941,265.286 14.843,257.032 14.412,249.314C13.874,239.691 21.303,231.497 26.39,223.737C78.073,144.898 154.116,72.751 253.384,69.613Z" style="fill:rgb(36,45,61);fill-rule:nonzero;"/>
    </g>
    <g transform="matrix(1.53007,0,0,1.53007,0,0)">
        <path d="M147.433,129.58C150.196,126.912 159.957,120.715 163.451,118.585C192.563,100.627 226.22,91.407 260.421,92.021C296.852,92.637 331.553,104.738 361.172,125.749C364.106,127.83 377.427,137.246 379.05,139.569C407.91,161.813 435.786,193.323 456.631,222.936C460.136,227.939 463.541,233.013 466.843,238.153C468.897,241.393 471.05,245.119 473.171,248.249C452.966,284.848 427.004,317.959 396.283,346.313C392.948,349.379 384.473,357.498 381.076,359.874C377.286,363.374 372.833,366.901 368.774,370.098C338.373,394.043 303.412,408.448 264.596,410.473C222.095,412.691 182.354,397.817 148.387,372.752C142.433,368.434 136.701,363.817 131.214,358.919C93.893,328.485 63.184,289.674 38.941,248.304C42.505,241.562 50.701,229.812 55.266,223.426C76.912,192.589 102.8,164.96 132.165,141.356C132.316,141.174 134.007,139.821 134.304,139.578C135.891,138.03 145.713,130.612 147.433,129.58Z" style="fill:white;fill-rule:nonzero;"/>
    </g>
    <g transform="matrix(1.53007,0,0,1.53007,0,0)">
        <path d="M147.433,129.58C150.196,126.912 159.957,120.715 163.451,118.585C192.563,100.627 226.22,91.407 260.421,92.021C296.852,92.637 331.553,104.738 361.172,125.749C364.106,127.83 377.427,137.246 379.05,139.569C407.91,161.813 435.786,193.323 456.631,222.936C460.136,227.939 463.541,233.013 466.843,238.153C468.897,241.393 471.05,245.119 473.171,248.249C452.966,284.848 427.004,317.959 396.283,346.313C392.948,349.379 384.473,357.498 381.076,359.874C377.286,363.374 372.833,366.901 368.774,370.098C338.373,394.043 303.412,408.448 264.596,410.473C222.095,412.691 182.354,397.817 148.387,372.752C142.433,368.434 136.701,363.817 131.214,358.919C93.893,328.485 63.184,289.674 38.941,248.304C42.505,241.562 50.701,229.812 55.266,223.426C76.912,192.589 102.8,164.96 132.165,141.356C132.316,141.174 134.007,139.821 134.304,139.578C138.385,144.104 143.676,149.216 147.994,153.546L167.985,173.556C150.775,193.836 138.835,220.548 137.448,247.269C135.514,279.744 146.83,311.615 168.81,335.598C190.594,359.956 221.236,374.559 253.876,376.14C284.822,377.462 315.054,366.608 338.093,345.904C362.275,323.901 376.779,293.23 378.443,260.577C379.838,227.652 368.184,195.506 346.013,171.124C325.03,148.101 296.235,132.77 264.836,131.322C233.48,129.623 202.755,140.587 179.557,161.752C175.775,157.726 171.213,153.359 167.274,149.413L147.433,129.58Z" style="fill:rgb(235,17,75);fill-rule:nonzero;"/>
    </g>
    <g transform="matrix(1.53007,0,0,1.53007,0,0)">
        <path d="M132.165,141.356C131.905,142.474 126.746,148.696 125.686,150.148C120.642,156.969 116.145,164.178 112.239,171.708C83.31,228.156 85.912,296.387 123.198,348.401C125.213,351.213 129.963,356.384 131.214,358.919C93.893,328.485 63.184,289.674 38.941,248.304C42.505,241.562 50.701,229.812 55.266,223.426C76.912,192.589 102.8,164.96 132.165,141.356Z" style="fill:white;fill-rule:nonzero;"/>
    </g>
    <g transform="matrix(1.53007,0,0,1.53007,0,0)">
        <path d="M379.05,139.569C407.91,161.813 435.786,193.323 456.631,222.936C460.136,227.939 463.541,233.013 466.843,238.153C468.897,241.393 471.05,245.119 473.171,248.249C452.966,284.848 427.004,317.959 396.283,346.313C392.948,349.379 384.473,357.498 381.076,359.874C381.16,359.588 391.595,345.644 392.557,344.191C405.028,325.509 413.546,304.474 417.587,282.378C419.89,269.627 420.153,257.353 419.764,244.415C418.96,217.673 410.993,189.69 397.679,166.465C394.382,160.721 390.764,155.166 386.843,149.828C384.335,146.446 381.415,142.981 379.05,139.569Z" style="fill:white;fill-rule:nonzero;"/>
    </g>
    <g transform="matrix(1.53007,0,0,1.53007,0,0)">
        <path d="M253.162,150.856C255.368,150.513 262.134,150.721 264.47,150.877C282.866,152.097 300.531,158.545 315.387,169.461C338.099,185.973 353.34,210.812 357.774,238.539C362.059,265.725 355.366,293.5 339.167,315.749C323.858,336.923 300.767,351.151 274.97,355.304C248.11,359.555 220.667,352.867 198.773,336.736C176.887,320.656 162.204,296.611 157.898,269.796C153.588,241.901 161.539,214.469 178.102,191.886L181.779,187.099C189.869,195.468 198.034,203.764 206.274,211.985C199.667,220.042 194.885,230.425 192.708,240.593C189.06,257.86 192.49,275.869 202.231,290.587C211.619,305.023 226.883,315.898 243.792,319.455C261.133,323.075 279.201,319.628 293.991,309.879C308.846,300.109 319.118,284.745 322.469,267.284C326.02,249.487 322.314,231.01 312.175,215.958C302.498,201.596 287.304,190.747 270.178,187.699C249.794,184.071 234.459,188.786 217.835,200.133C215.943,197.86 211.622,193.772 209.367,191.504C204.009,186.085 198.623,180.694 193.209,175.331C197.008,172.507 199.998,169.81 204.099,167.132C219.581,157.018 234.911,152.179 253.162,150.856Z" style="fill:rgb(235,17,75);fill-rule:nonzero;"/>
    </g>
    <g transform="matrix(1.53007,0,0,1.53007,0,0)">
        <path d="M254.577,206.354C266.596,205.18 278.606,209.531 287.672,217.342C297.473,225.885 303.472,237.977 304.345,250.949C305.101,263.416 300.965,275.685 292.817,285.15C284.534,294.662 272.756,300.422 260.161,301.118C247.873,301.851 235.8,297.657 226.611,289.466C216.858,280.808 211.533,269.034 210.734,256.101C210.436,244.433 213.672,235.554 219.998,225.917C225.264,231.692 232.633,238.987 238.259,244.481C236.433,248.752 235.697,252.841 236.395,257.492C237.222,262.789 240.123,267.54 244.457,270.697C248.781,273.808 254.163,275.076 259.421,274.223C264.985,273.296 269.784,270.567 273.039,265.891C276.165,261.337 277.335,255.72 276.286,250.296C275.282,244.815 272.108,239.97 267.484,236.86C262.481,233.512 257.065,232.911 251.276,234.066C244.753,227.467 238.13,220.604 231.46,214.165C240.142,209.549 244.202,207.105 254.577,206.354Z" style="fill:rgb(235,17,75);fill-rule:nonzero;"/>
    </g>
</svg>
