<?xml version="1.0" encoding="UTF-8" standalone="no"?>
<!DOCTYPE svg PUBLIC "-//W3C//DTD SVG 1.1//EN" "http://www.w3.org/Graphics/SVG/1.1/DTD/svg11.dtd">
<svg width="100%" height="100%" viewBox="0 0 550 550" version="1.1" xmlns="http://www.w3.org/2000/svg" xmlns:xlink="http://www.w3.org/1999/xlink" xml:space="preserve" xmlns:serif="http://www.serif.com/" style="fill-rule:evenodd;clip-rule:evenodd;stroke-miterlimit:10;">
    <g id="g29">
    </g>
    <g id="g28" transform="matrix(1,0,0,1,-572.515,-522.637)">
        <g id="path17" transform="matrix(8.50198,0,0,8.50141,-1752.67,-3147.32)">
            <path d="M305.785,435.314C303.121,436.958 293.404,442.617 282.789,444.627C283.731,450.616 287.531,474.289 289.066,476.716C290.158,478.442 295.092,484.043 299.546,488.362C302.448,491.176 305.016,493.391 305.809,493.391L305.809,493.396L305.829,493.396L305.829,493.391C306.622,493.391 309.19,491.176 312.091,488.362C316.546,484.043 321.48,478.442 322.572,476.716C324.107,474.289 327.907,450.616 328.849,444.627C318.234,442.617 308.517,436.959 305.853,435.314L305.819,435.336L305.785,435.314L305.785,435.314Z" style="fill:white;"/>
        </g>
        <g id="path25" transform="matrix(8.50198,0,0,8.50141,510.761,86.5344)">
            <path d="M39.35,52.017C36.312,53.796 25.231,59.917 13.126,62.091C14.201,68.569 18.534,94.174 20.284,96.799C21.529,98.667 27.156,104.725 32.236,109.396C35.545,112.44 38.472,114.836 39.377,114.836L39.377,114.841L39.4,114.841L39.4,114.836C40.305,114.836 43.232,112.44 46.542,109.396C51.621,104.725 57.248,98.667 58.493,96.799C60.243,94.174 64.577,68.569 65.652,62.091C53.547,59.917 42.466,53.797 39.427,52.017L39.389,52.042L39.35,52.017L39.35,52.017ZM39.389,106.918L39.377,106.918C38.086,106.918 35.683,104.986 33.214,102.532C29.931,99.269 26.238,94.948 25.388,93.57C23.849,91.076 20.415,68.238 20.406,68.173L20.18,66.697L21.66,66.457C30.38,65.039 38.508,59.555 38.531,59.54L39.381,58.966L39.389,58.971L39.397,58.966L40.247,59.54C40.27,59.555 48.398,65.039 57.117,66.457L58.597,66.697L58.372,68.173C58.362,68.238 54.928,91.076 53.389,93.57C52.539,94.948 48.847,99.269 45.564,102.532C43.095,104.986 40.692,106.918 39.401,106.918L39.389,106.918Z" style="fill:rgb(171,0,0);"/>
        </g>
        <g id="path27" transform="matrix(8.50198,0,0,8.50141,510.761,86.5344)">
            <path d="M52.133,70.74C50.579,74.79 49.14,78.497 47.815,81.86C47.254,83.312 46.688,84.751 46.114,86.178C45.541,87.605 45.006,88.929 44.509,90.152C44.012,91.375 43.567,92.439 43.172,93.343C42.777,94.247 42.478,94.891 42.274,95.273C41.841,96.088 41.331,96.648 40.745,96.954C40.159,97.26 39.612,97.438 39.102,97.489C38.465,97.566 37.841,97.502 37.23,97.298L26.645,70.74C27.256,70.638 27.874,70.593 28.498,70.606C29.122,70.619 29.702,70.721 30.237,70.912C30.772,71.103 31.262,71.396 31.708,71.791C32.154,72.186 32.517,72.714 32.797,73.376C32.822,73.478 32.943,73.803 33.16,74.351C33.377,74.899 33.644,75.587 33.963,76.414C34.281,77.242 34.631,78.166 35.013,79.185C35.395,80.204 35.79,81.236 36.198,82.28C37.14,84.751 38.211,87.515 39.408,90.572C40.58,87.515 41.637,84.751 42.58,82.28C42.987,81.236 43.382,80.204 43.764,79.185C44.146,78.166 44.497,77.242 44.815,76.414C45.134,75.587 45.401,74.899 45.617,74.351C45.834,73.803 45.968,73.478 46.019,73.376C46.299,72.714 46.662,72.186 47.108,71.791C47.554,71.396 48.044,71.103 48.579,70.912C49.114,70.721 49.687,70.619 50.299,70.606C50.91,70.593 51.521,70.638 52.133,70.74L52.133,70.74Z" style="stroke:black;stroke-width:1px;"/>
        </g>
    </g>
</svg>
